<?xml version="1.0" encoding="utf-8"?>
<!-- Generator: Adobe Illustrator 19.0.0, SVG Export Plug-In . SVG Version: 6.00 Build 0)  -->
<svg version="1.1" id="Layer_1" xmlns="http://www.w3.org/2000/svg" xmlns:xlink="http://www.w3.org/1999/xlink" x="0px" y="0px"
	 viewBox="0 0 50 50" style="enable-background:new 0 0 50 50;" xml:space="preserve">
<style type="text/css">
	.st0{fill:#FFFFFF;}
	.st1{fill:#003162;}
</style>
<g id="XMLID_9_">
	<g id="XMLID_3_">
		<path id="XMLID_5_" class="st0" d="M25,50C11.2,50,0,38.8,0,25C0,11.2,11.2,0,25,0c13.8,0,25,11.2,25,25C50,38.8,38.8,50,25,50z"
			/>
	</g>
</g>
<circle id="XMLID_4_" class="st1" cx="24.7" cy="25.3" r="24.4"/>
<path id="XMLID_90_" class="st0" d="M26.8,17.8h2.4c0.1,0,0.2,0,0.2-0.1l0.2-0.2h-0.3v-3.4c0-0.2-0.1-0.3-0.3-0.3h-2.9
	c-3.4,0-5,1.5-5,4.4V21c0,0.2-0.1,0.3-0.3,0.3H19V21l-0.2,0.2c-0.1,0.1-0.1,0.1-0.1,0.2V25c0,0.2,0.1,0.3,0.3,0.3h1.8
	c0.2,0,0.3,0.1,0.3,0.3v10.9c0,0.2,0.1,0.3,0.3,0.3h4.2c0.1,0,0.2,0,0.2-0.1l0.2-0.2h-0.3v-11c0-0.2,0.1-0.3,0.3-0.3h2.8
	c0.1,0,0.2,0,0.2-0.1l0.2-0.2h-0.3l0.3-3.3c0-0.2-0.1-0.3-0.3-0.3H26c-0.2,0-0.3-0.1-0.3-0.3v-1.9C25.7,18.2,25.9,17.8,26.8,17.8z"
	/>
<g id="XMLID_1_">
	<path id="XMLID_83_" class="st0" d="M21.4,36.5H26V24.9h3.2l0.3-3.9H26c0,0,0-1.4,0-2.2c0-0.9,0.2-1.3,1.1-1.3c0.7,0,2.5,0,2.5,0
		v-4c0,0-2.6,0-3.2,0c-3.4,0-5,1.5-5,4.4c0,2.5,0,3.1,0,3.1H19V25h2.4V36.5z"/>
</g>
<g id="XMLID_2_">
</g>
<g id="XMLID_6_">
</g>
<g id="XMLID_7_">
</g>
<g id="XMLID_8_">
</g>
<g id="XMLID_10_">
</g>
<g id="XMLID_11_">
</g>
</svg>
