<?xml version="1.0" encoding="utf-8"?>
<!-- Generator: Adobe Illustrator 19.0.0, SVG Export Plug-In . SVG Version: 6.00 Build 0)  -->
<svg version="1.1" id="Layer_1" xmlns="http://www.w3.org/2000/svg" xmlns:xlink="http://www.w3.org/1999/xlink" x="0px" y="0px"
	 viewBox="0 0 50 50" style="enable-background:new 0 0 50 50;" xml:space="preserve">
<style type="text/css">
	.st0{fill:#FFFFFF;}
	.st1{fill:#003162;}
</style>
<g id="XMLID_49_">
	<g id="XMLID_50_">
		<path id="XMLID_51_" class="st0" d="M25.2,50C11.3,50,0,38.8,0,25C0,11.2,11.3,0,25.2,0c13.9,0,25.2,11.2,25.2,25
			C50.5,38.8,39.1,50,25.2,50z"/>
	</g>
</g>
<ellipse id="XMLID_48_" class="st1" cx="24.9" cy="25.3" rx="24.7" ry="24.4"/>
<g id="XMLID_639_">
	<g id="XMLID_673_">
		<rect id="XMLID_676_" x="17.6" y="20.1" class="st0" width="4" height="12.7"/>
		<circle id="XMLID_674_" class="st0" cx="19.5" cy="16.1" r="2.3"/>
	</g>
	<path id="XMLID_640_" class="st0" d="M27.9,26.1c0-1.8,0.8-2.8,2.4-2.8c1.5,0,2.2,1,2.2,2.8c0,1.8,0,6.7,0,6.7h3.9c0,0,0-4.6,0-8
		c0-3.4-1.9-5-4.7-5c-2.7,0-3.9,2.1-3.9,2.1v-1.7h-3.8v12.7h3.8C27.9,32.7,27.9,28,27.9,26.1z"/>
</g>
<g id="XMLID_1_">
</g>
<g id="XMLID_2_">
</g>
<g id="XMLID_3_">
</g>
<g id="XMLID_4_">
</g>
<g id="XMLID_5_">
</g>
<g id="XMLID_6_">
</g>
</svg>
