<?xml version="1.0" encoding="utf-8"?>
<!-- Generator: Adobe Illustrator 19.0.0, SVG Export Plug-In . SVG Version: 6.00 Build 0)  -->
<svg version="1.1" id="Layer_1" xmlns="http://www.w3.org/2000/svg" xmlns:xlink="http://www.w3.org/1999/xlink" x="0px" y="0px"
	 viewBox="0 0 50 50" style="enable-background:new 0 0 50 50;" xml:space="preserve">
<style type="text/css">
	.st0{fill:#FFFFFF;}
	.st1{fill:#003162;}
	.st2{fill-rule:evenodd;clip-rule:evenodd;fill:#FFFFFF;}
</style>
<g id="XMLID_79_">
	<g id="XMLID_80_">
		<path id="XMLID_81_" class="st0" d="M25.2,50C11.3,50,0,38.7,0,24.8S11.3-0.4,25.2-0.4c13.9,0,25.2,11.3,25.2,25.2
			S39.1,50,25.2,50z"/>
	</g>
</g>
<circle id="XMLID_78_" class="st1" cx="24.9" cy="25.1" r="24.6"/>
<g id="XMLID_526_">
	<path id="XMLID_529_" class="st2" d="M36.3,24c-0.1-5.5-4.7-10-10.3-10c-5.5,0-10,4.3-10.3,9.8c0,0.1,0,0.3,0,0.4
		c0,1.9,0.5,3.7,1.5,5.3l-1.9,5.5l5.7-1.8c1.5,0.8,3.2,1.3,5,1.3c5.7,0,10.3-4.6,10.3-10.2C36.3,24.2,36.3,24.1,36.3,24z M26,32.9
		c-1.8,0-3.4-0.5-4.8-1.4l-3.3,1.1l1.1-3.2c-1-1.4-1.6-3.2-1.6-5c0-0.3,0-0.6,0-0.8c0.4-4.3,4.1-7.8,8.6-7.8c4.5,0,8.3,3.5,8.6,7.9
		c0,0.2,0,0.4,0,0.7C34.6,29,30.7,32.9,26,32.9z"/>
	<path id="XMLID_528_" class="st2" d="M30.7,26.4c-0.3-0.1-1.5-0.7-1.7-0.8c-0.2-0.1-0.4-0.1-0.6,0.1c-0.2,0.3-0.7,0.8-0.8,1
		c-0.1,0.2-0.3,0.2-0.5,0.1c-0.3-0.1-1.1-0.4-2-1.2c-0.7-0.7-1.3-1.5-1.4-1.7c-0.1-0.3,0-0.4,0.1-0.5c0.1-0.1,0.3-0.3,0.4-0.4
		c0,0,0.1-0.1,0.1-0.1c0.1-0.1,0.1-0.2,0.2-0.3c0.1-0.2,0-0.3,0-0.4c-0.1-0.1-0.6-1.4-0.8-1.9c-0.2-0.5-0.4-0.4-0.6-0.4
		c-0.1,0-0.3,0-0.5,0c-0.2,0-0.4,0.1-0.7,0.3c-0.2,0.3-0.9,0.9-0.9,2.1c0,0.3,0.1,0.6,0.1,0.9c0.3,0.9,0.8,1.6,0.9,1.7
		c0.1,0.2,1.7,2.8,4.3,3.8c2.6,1,2.6,0.7,3,0.6c0.5,0,1.5-0.6,1.7-1.2c0.2-0.6,0.2-1.1,0.1-1.2C31.1,26.6,30.9,26.5,30.7,26.4z"/>
</g>
<g id="XMLID_1_">
</g>
<g id="XMLID_2_">
</g>
<g id="XMLID_3_">
</g>
<g id="XMLID_4_">
</g>
<g id="XMLID_5_">
</g>
<g id="XMLID_6_">
</g>
</svg>
