<?xml version="1.0" encoding="utf-8"?>
<!-- Generator: Adobe Illustrator 19.0.0, SVG Export Plug-In . SVG Version: 6.00 Build 0)  -->
<svg version="1.1" id="Layer_1" xmlns="http://www.w3.org/2000/svg" xmlns:xlink="http://www.w3.org/1999/xlink" x="0px" y="0px"
	 viewBox="0 0 50 50" style="enable-background:new 0 0 50 50;" xml:space="preserve">
<style type="text/css">
	.st0{fill:#FFFFFF;}
	.st1{fill:#003162;}
</style>
<g id="XMLID_14_">
	<g id="XMLID_15_">
		<path id="XMLID_16_" class="st0" d="M25.1,50c-13.8,0-25-11.2-25-25c0-13.8,11.2-25,25-25c13.8,0,25,11.2,25,25
			C50.1,38.8,38.9,50,25.1,50z"/>
	</g>
</g>
<circle id="XMLID_13_" class="st1" cx="24.8" cy="25.3" r="24.4"/>
<path id="XMLID_108_" class="st0" d="M35.2,19.5c-0.8,0.3-1.6,0.6-2.4,0.7c0.9-0.5,1.5-1.3,1.8-2.3c-0.8,0.5-1.7,0.8-2.6,1
	c-0.8-0.8-1.9-1.3-3-1.3c-1.3,0-2.5,0.6-3.2,1.6c-0.8,1-1.1,2.3-0.8,3.5c-3.3-0.2-6.3-1.7-8.5-4.2l0.2-0.4l-0.3,0.3
	c-1.1,1.9-0.5,4.3,1.3,5.5c-0.5,0-1.1-0.1-1.6-0.4l0-0.4l-0.3,0.3c0,2,1.4,3.7,3.3,4.1c-0.4,0.1-0.7,0.1-1.1,0.1c-0.1,0-0.2,0-0.3,0
	l-0.2-0.4l-0.3,0.3c0.5,1.7,2.1,2.8,3.9,2.9c-1.5,1.1-3.3,1.8-5.1,1.8c0,0-0.1,0-0.1,0l-0.6-0.3l-0.3,0.3c1.9,1.2,4.1,1.9,6.4,1.9
	c4.2,0,6.9-1.9,8.5-3.5c2.2-2.3,3.5-5.6,3.3-8.8C33.9,21,34.6,20.3,35.2,19.5z"/>
<path id="XMLID_91_" class="st0" d="M21.6,33.6c-2.3,0-4.5-0.6-6.4-1.9c0.3,0,0.7,0.1,1,0.1c1.9,0,3.7-0.6,5.1-1.8
	c-1.8,0-3.3-1.2-3.9-2.9c0.3,0,0.5,0.1,0.8,0.1c0.4,0,0.7,0,1.1-0.1C17.4,26.7,16,25,16.1,23c0.6,0.3,1.2,0.5,1.9,0.5
	c-1.8-1.2-2.4-3.6-1.3-5.5c2.1,2.6,5.2,4.2,8.5,4.3c-0.3-1.2,0-2.5,0.8-3.5c0.8-1,2-1.6,3.2-1.6c1.1,0,2.2,0.5,3,1.3
	c0.9-0.2,1.8-0.5,2.6-1c-0.3,1-0.9,1.8-1.8,2.3c0.8-0.1,1.6-0.3,2.4-0.7c-0.6,0.8-1.3,1.6-2.1,2.2c0.1,3.2-1.1,6.5-3.3,8.8
	C28.5,31.7,25.8,33.6,21.6,33.6z"/>
<g id="XMLID_1_">
</g>
<g id="XMLID_2_">
</g>
<g id="XMLID_3_">
</g>
<g id="XMLID_4_">
</g>
<g id="XMLID_5_">
</g>
<g id="XMLID_6_">
</g>
</svg>
