<?xml version="1.0" encoding="utf-8"?>
<!-- Generator: Adobe Illustrator 19.0.0, SVG Export Plug-In . SVG Version: 6.00 Build 0)  -->
<svg version="1.1" id="Layer_1" xmlns="http://www.w3.org/2000/svg" xmlns:xlink="http://www.w3.org/1999/xlink" x="0px" y="0px"
	 viewBox="0 0 150 50" style="enable-background:new 0 0 150 50;" xml:space="preserve">
<style type="text/css">
	.st0{fill-rule:evenodd;clip-rule:evenodd;fill:#535F85;}
	.st1{fill-rule:evenodd;clip-rule:evenodd;fill:#009045;}
	.st2{fill-rule:evenodd;clip-rule:evenodd;fill:#D68500;}
	.st3{fill-rule:evenodd;clip-rule:evenodd;fill:#0087CA;}
</style>
<g>
	<path class="st0" d="M81.4,5.1h38.8c0.4,0,0.6,0.3,0.6,0.6v24.2c0,0.4-0.3,0.6-0.6,0.6H81.4c-0.4,0-0.6-0.3-0.6-0.6V5.7
		C80.7,5.3,81,5.1,81.4,5.1L81.4,5.1z M119.3,5.2c0.2,0,0.3,0.1,0.3,0.3s-0.1,0.3-0.3,0.3c-0.2,0-0.3-0.1-0.3-0.3
		S119.1,5.2,119.3,5.2L119.3,5.2z M118,5.2c0.2,0,0.3,0.1,0.3,0.3s-0.1,0.3-0.3,0.3c-0.2,0-0.3-0.1-0.3-0.3S117.8,5.2,118,5.2
		L118,5.2z M116.7,5.2c0.2,0,0.3,0.1,0.3,0.3s-0.1,0.3-0.3,0.3c-0.2,0-0.3-0.1-0.3-0.3S116.6,5.2,116.7,5.2L116.7,5.2z M82.2,6.1
		h37.1c0.3,0,0.6,0.3,0.6,0.6v22.5c0,0.3-0.3,0.6-0.6,0.6H82.2c-0.3,0-0.6-0.3-0.6-0.6V6.7C81.6,6.3,81.9,6.1,82.2,6.1L82.2,6.1z"/>
	<path class="st1" d="M105.5,8.5h28.8c0.3,0,0.5,0.2,0.5,0.5v18c0,0.3-0.2,0.5-0.5,0.5h-28.8c-0.3,0-0.5-0.2-0.5-0.5v-18
		C105,8.7,105.2,8.5,105.5,8.5L105.5,8.5z M133.6,8.6c0.1,0,0.2,0.1,0.2,0.2s-0.1,0.2-0.2,0.2c-0.1,0-0.2-0.1-0.2-0.2
		S133.5,8.6,133.6,8.6L133.6,8.6z M132.7,8.6c0.1,0,0.2,0.1,0.2,0.2s-0.1,0.2-0.2,0.2c-0.1,0-0.2-0.1-0.2-0.2S132.5,8.6,132.7,8.6
		L132.7,8.6z M131.7,8.6c0.1,0,0.2,0.1,0.2,0.2s-0.1,0.2-0.2,0.2c-0.1,0-0.2-0.1-0.2-0.2S131.6,8.6,131.7,8.6L131.7,8.6z M106.1,9.2
		h27.5c0.2,0,0.5,0.2,0.5,0.4v16.7c0,0.2-0.2,0.4-0.5,0.4h-27.5c-0.2,0-0.5-0.2-0.5-0.4V9.6C105.7,9.4,105.9,9.2,106.1,9.2
		L106.1,9.2z"/>
	<path class="st2" d="M129.6,11.8h18.8c0.2,0,0.3,0.1,0.3,0.3v11.7c0,0.2-0.1,0.3-0.3,0.3h-18.8c-0.2,0-0.3-0.1-0.3-0.3V12.2
		C129.3,12,129.4,11.8,129.6,11.8L129.6,11.8z M148,11.9c0.1,0,0.2,0.1,0.2,0.2c0,0.1-0.1,0.2-0.2,0.2c-0.1,0-0.2-0.1-0.2-0.2
		C147.8,12,147.9,11.9,148,11.9L148,11.9z M147.3,11.9c0.1,0,0.2,0.1,0.2,0.2c0,0.1-0.1,0.2-0.2,0.2c-0.1,0-0.2-0.1-0.2-0.2
		C147.2,12,147.2,11.9,147.3,11.9L147.3,11.9z M146.7,11.9c0.1,0,0.2,0.1,0.2,0.2c0,0.1-0.1,0.2-0.2,0.2c-0.1,0-0.2-0.1-0.2-0.2
		C146.5,12,146.6,11.9,146.7,11.9L146.7,11.9z M130,12.3h17.9c0.2,0,0.3,0.1,0.3,0.3l0,10.9c0,0.2-0.1,0.3-0.3,0.3H130
		c-0.2,0-0.3-0.1-0.3-0.3V12.6C129.7,12.5,129.9,12.3,130,12.3L130,12.3z"/>
	<path class="st3" d="M35.6,42.9v-7.5H24.4l7.5-7.5h3.7v-3.7l7.5-7.5v26.1H35.6L35.6,42.9z M2,42.9l29.8-29.8H43L13.2,42.9H2L2,42.9
		z"/>
	<path class="st3" d="M52.7,34.1v-4.5h9.1v4.5H52.7L52.7,34.1z M45.9,40.9V27.3l4.5-4.5h18.2v4.5H50.4v9.1h18.2l-4.5,4.5H45.9
		L45.9,40.9z"/>
	<path class="st3" d="M80.4,43.8V25.2h7.5v18.6H80.4L80.4,43.8z M65.4,21.5V14h37.3l-7.5,7.5H65.4L65.4,21.5z"/>
	<path class="st3" d="M92,39.9l1.2-0.1c0.1,0.5,0.2,0.9,0.4,1.2c0.2,0.3,0.5,0.6,1,0.7C95,41.9,95.5,42,96,42c0.5,0,0.9-0.1,1.3-0.2
		c0.4-0.1,0.6-0.3,0.8-0.6c0.2-0.3,0.3-0.5,0.3-0.8c0-0.3-0.1-0.6-0.3-0.8c-0.2-0.2-0.5-0.4-0.9-0.6c-0.3-0.1-0.8-0.3-1.7-0.5
		c-0.9-0.2-1.5-0.4-1.8-0.6c-0.5-0.2-0.8-0.5-1-0.9c-0.2-0.4-0.3-0.7-0.3-1.2c0-0.5,0.1-0.9,0.4-1.3c0.3-0.4,0.7-0.7,1.2-1
		c0.5-0.2,1.1-0.3,1.8-0.3c0.7,0,1.3,0.1,1.9,0.3c0.5,0.2,1,0.6,1.2,1c0.3,0.4,0.4,0.9,0.5,1.5l-1.2,0.1c-0.1-0.6-0.3-1.1-0.7-1.4
		c-0.4-0.3-0.9-0.5-1.7-0.5c-0.8,0-1.3,0.1-1.7,0.4c-0.3,0.3-0.5,0.6-0.5,1c0,0.3,0.1,0.6,0.4,0.8c0.2,0.2,0.9,0.4,1.9,0.7
		c1,0.2,1.7,0.4,2.1,0.6c0.6,0.3,1,0.6,1.2,1c0.3,0.4,0.4,0.8,0.4,1.4c0,0.5-0.1,1-0.4,1.4c-0.3,0.4-0.7,0.8-1.3,1
		c-0.5,0.2-1.2,0.4-1.8,0.4c-0.9,0-1.6-0.1-2.2-0.4c-0.6-0.3-1-0.6-1.4-1.1C92.2,41.1,92,40.6,92,39.9L92,39.9z"/>
	<path class="st3" d="M100.8,39.5c0-1.3,0.4-2.2,1.1-2.8c0.6-0.5,1.3-0.8,2.2-0.8c1,0,1.7,0.3,2.3,0.9c0.6,0.6,0.9,1.5,0.9,2.6
		c0,0.9-0.1,1.6-0.4,2.1c-0.3,0.5-0.7,0.9-1.2,1.2c-0.5,0.3-1.1,0.4-1.7,0.4c-1,0-1.7-0.3-2.3-0.9C101,41.6,100.8,40.7,100.8,39.5
		L100.8,39.5z M102,39.5c0,0.9,0.2,1.5,0.6,2c0.4,0.4,0.9,0.7,1.5,0.7c0.6,0,1.1-0.2,1.5-0.7c0.4-0.4,0.6-1.1,0.6-2
		c0-0.9-0.2-1.5-0.6-1.9c-0.4-0.4-0.9-0.7-1.4-0.7c-0.6,0-1.1,0.2-1.5,0.7C102.1,38,102,38.7,102,39.5L102,39.5z"/>
	<polygon class="st3" points="108.6,43 108.6,33.5 109.7,33.5 109.7,43 108.6,43 	"/>
	<path class="st3" d="M116.1,43v-1c-0.5,0.8-1.3,1.2-2.2,1.2c-0.4,0-0.8-0.1-1.1-0.2c-0.4-0.2-0.6-0.4-0.8-0.6
		c-0.2-0.2-0.3-0.5-0.4-0.9c0-0.2-0.1-0.6-0.1-1.1v-4.3h1.2v3.8c0,0.6,0,1,0.1,1.2c0.1,0.3,0.2,0.5,0.5,0.7c0.2,0.2,0.5,0.3,0.9,0.3
		c0.4,0,0.7-0.1,1-0.3c0.3-0.2,0.5-0.4,0.7-0.7c0.1-0.3,0.2-0.8,0.2-1.4v-3.7h1.2V43H116.1L116.1,43z"/>
	<path class="st3" d="M121.5,41.9l0.2,1c-0.3,0.1-0.6,0.1-0.9,0.1c-0.4,0-0.8-0.1-1-0.2c-0.2-0.1-0.4-0.3-0.5-0.5
		c-0.1-0.2-0.1-0.7-0.1-1.4v-4h-0.9v-0.9h0.9v-1.7l1.2-0.7v2.4h1.2V37h-1.2v4c0,0.3,0,0.5,0.1,0.6c0,0.1,0.1,0.2,0.2,0.2
		c0.1,0.1,0.2,0.1,0.4,0.1C121.2,42,121.3,42,121.5,41.9L121.5,41.9z"/>
	<path class="st3" d="M122.7,34.8v-1.3h1.2v1.3H122.7L122.7,34.8z M122.7,43v-6.9h1.2V43H122.7L122.7,43z"/>
	<path class="st3" d="M125.2,39.5c0-1.3,0.4-2.2,1.1-2.8c0.6-0.5,1.3-0.8,2.2-0.8c1,0,1.7,0.3,2.3,0.9c0.6,0.6,0.9,1.5,0.9,2.6
		c0,0.9-0.1,1.6-0.4,2.1c-0.3,0.5-0.7,0.9-1.2,1.2c-0.5,0.3-1.1,0.4-1.7,0.4c-1,0-1.7-0.3-2.3-0.9C125.5,41.6,125.2,40.7,125.2,39.5
		L125.2,39.5z M126.4,39.5c0,0.9,0.2,1.5,0.6,2c0.4,0.4,0.9,0.7,1.5,0.7c0.6,0,1.1-0.2,1.5-0.7c0.4-0.4,0.6-1.1,0.6-2
		c0-0.9-0.2-1.5-0.6-1.9c-0.4-0.4-0.9-0.7-1.4-0.7c-0.6,0-1.1,0.2-1.5,0.7C126.6,38,126.4,38.7,126.4,39.5L126.4,39.5z"/>
	<path class="st3" d="M133.1,43v-6.9h1.1v1c0.5-0.8,1.2-1.1,2.2-1.1c0.4,0,0.8,0.1,1.1,0.2c0.4,0.2,0.6,0.3,0.8,0.6
		c0.2,0.2,0.3,0.5,0.4,0.9c0,0.2,0.1,0.6,0.1,1.1V43h-1.2v-4.2c0-0.5,0-0.8-0.1-1.1c-0.1-0.2-0.3-0.4-0.5-0.6
		c-0.2-0.1-0.5-0.2-0.8-0.2c-0.5,0-0.9,0.2-1.3,0.5c-0.4,0.3-0.5,0.9-0.5,1.8V43H133.1L133.1,43z"/>
	<path class="st3" d="M140,40.9l1.2-0.2c0.1,0.5,0.2,0.8,0.5,1.1c0.3,0.2,0.7,0.4,1.2,0.4c0.5,0,0.9-0.1,1.2-0.3
		c0.3-0.2,0.4-0.5,0.4-0.8c0-0.3-0.1-0.5-0.3-0.6c-0.2-0.1-0.6-0.2-1.2-0.4c-0.9-0.2-1.5-0.4-1.8-0.6c-0.3-0.2-0.6-0.4-0.8-0.7
		c-0.2-0.3-0.3-0.6-0.3-0.9c0-0.3,0.1-0.6,0.2-0.9c0.1-0.3,0.3-0.5,0.6-0.7c0.2-0.1,0.4-0.2,0.7-0.3c0.3-0.1,0.7-0.1,1-0.1
		c0.5,0,1,0.1,1.4,0.2c0.4,0.2,0.7,0.4,0.9,0.6c0.2,0.3,0.3,0.6,0.4,1.1l-1.1,0.2c-0.1-0.4-0.2-0.6-0.5-0.8
		c-0.2-0.2-0.6-0.3-1.1-0.3c-0.5,0-0.9,0.1-1.2,0.3c-0.2,0.2-0.3,0.4-0.3,0.6c0,0.2,0,0.3,0.1,0.4c0.1,0.1,0.2,0.2,0.4,0.3
		c0.1,0,0.5,0.1,1,0.3c0.8,0.2,1.4,0.4,1.7,0.5c0.3,0.1,0.6,0.3,0.8,0.6c0.2,0.3,0.3,0.6,0.3,1c0,0.4-0.1,0.8-0.3,1.1
		c-0.2,0.3-0.6,0.6-1,0.8c-0.4,0.2-0.9,0.3-1.5,0.3c-0.9,0-1.6-0.2-2.1-0.6C140.4,42.2,140.1,41.7,140,40.9L140,40.9z"/>
</g>
<g id="XMLID_1_">
</g>
<g id="XMLID_2_">
</g>
<g id="XMLID_3_">
</g>
<g id="XMLID_4_">
</g>
<g id="XMLID_5_">
</g>
<g id="XMLID_6_">
</g>
</svg>
