<?xml version="1.0" encoding="utf-8"?>
<!-- Generator: Adobe Illustrator 19.0.0, SVG Export Plug-In . SVG Version: 6.00 Build 0)  -->
<svg version="1.1" id="Layer_1" xmlns="http://www.w3.org/2000/svg" xmlns:xlink="http://www.w3.org/1999/xlink" x="0px" y="0px"
	 viewBox="50 -25 250 100" style="enable-background:new 50 -25 250 100;" xml:space="preserve">
<style type="text/css">
	.st0{opacity:0.8;}
	.st1{fill:#FFFFFF;fill-opacity:0;}
	.st2{opacity:3.225806e-002;fill:#FDFDFD;enable-background:new    ;}
	.st3{opacity:6.451613e-002;fill:#F9F9F9;enable-background:new    ;}
	.st4{opacity:9.677419e-002;fill:#F5F5F5;enable-background:new    ;}
	.st5{opacity:0.129;fill:#F1F1F1;enable-background:new    ;}
	.st6{opacity:0.1613;fill:#ECEDED;enable-background:new    ;}
	.st7{opacity:0.1935;fill:#E8E8E9;enable-background:new    ;}
	.st8{opacity:0.2258;fill:#E4E4E5;enable-background:new    ;}
	.st9{opacity:0.2581;fill:#DFDFE0;enable-background:new    ;}
	.st10{opacity:0.2903;fill:#DBDBDC;enable-background:new    ;}
	.st11{opacity:0.3226;fill:#D6D6D8;enable-background:new    ;}
	.st12{opacity:0.3548;fill:#D2D2D4;enable-background:new    ;}
	.st13{opacity:0.3871;fill:#CDCDCF;enable-background:new    ;}
	.st14{opacity:0.4194;fill:#C9C8CB;enable-background:new    ;}
	.st15{opacity:0.4516;fill:#C5C4C6;enable-background:new    ;}
	.st16{opacity:0.4839;fill:#C0BFC2;enable-background:new    ;}
	.st17{opacity:0.5161;fill:#BCBBBD;enable-background:new    ;}
	.st18{opacity:0.5484;fill:#B8B7B9;enable-background:new    ;}
	.st19{opacity:0.5806;fill:#B3B2B5;enable-background:new    ;}
	.st20{opacity:0.6129;fill:#AFAEB0;enable-background:new    ;}
	.st21{opacity:0.6452;fill:#ABAAAC;enable-background:new    ;}
	.st22{opacity:0.6774;fill:#A7A6A8;enable-background:new    ;}
	.st23{opacity:0.7097;fill:#A3A2A4;enable-background:new    ;}
	.st24{opacity:0.7419;fill:#9F9EA0;enable-background:new    ;}
	.st25{opacity:0.7742;fill:#9B9A9C;enable-background:new    ;}
	.st26{opacity:0.8065;fill:#979699;enable-background:new    ;}
	.st27{opacity:0.8387;fill:#939395;enable-background:new    ;}
	.st28{opacity:0.871;fill:#8F8F92;enable-background:new    ;}
	.st29{opacity:0.9032;fill:#8B8C8E;enable-background:new    ;}
	.st30{opacity:0.9355;fill:#88888B;enable-background:new    ;}
	.st31{opacity:0.9677;fill:#848588;enable-background:new    ;}
	.st32{fill:#808285;}
	.st33{fill:url(#XMLID_72_);}
	.st34{fill:url(#XMLID_73_);}
	.st35{fill:url(#XMLID_74_);}
	.st36{fill:url(#XMLID_82_);}
	.st37{fill:#FFFFFF;}
	.st38{fill:url(#XMLID_86_);}
</style>
<g id="A_1_">
	<g id="XMLID_117_" class="st0">
		<path id="XMLID_34_" class="st1" d="M71.8,22.2c1.3-18.4,17.2-32.3,35.6-31l184.1,0.3L288.3,37c-1.3,18.4-17.2,32.3-35.6,31
			l-184-0.3L71.8,22.2z"/>
		<path id="XMLID_64_" class="st2" d="M71.6,22c1.3-18.4,17.2-32.3,35.6-31l184.1,0.3l-3.1,45.5c-1.3,18.4-17.2,32.3-35.6,31
			L68.5,67.5L71.6,22z"/>
		<path id="XMLID_63_" class="st3" d="M71.4,21.7c1.3-18.4,17.2-32.3,35.6-31L291-9l-3.1,45.5c-1.3,18.4-17.2,32.3-35.6,31l-184-0.3
			L71.4,21.7z"/>
		<path id="XMLID_62_" class="st4" d="M71.2,21.5c1.3-18.4,17.2-32.3,35.5-31l184,0.3l-3.1,45.5c-1.3,18.4-17.2,32.3-35.5,31
			L68.1,67L71.2,21.5z"/>
		<path id="XMLID_61_" class="st5" d="M71,21.2c1.3-18.4,17.2-32.3,35.5-31l184,0.3l-3,45.5c-1.3,18.4-17.2,32.3-35.5,31L68,66.7
			L71,21.2z"/>
		<path id="XMLID_60_" class="st6" d="M70.8,21C72.1,2.7,88-11.3,106.3-10l184,0.3l-3.1,45.5c-1.3,18.4-17.2,32.3-35.5,31l-184-0.3
			L70.8,21z"/>
		<path id="XMLID_59_" class="st7" d="M70.6,20.8c1.3-18.3,17.2-32.3,35.5-31l184,0.3L287,35.6c-1.3,18.3-17.2,32.3-35.5,31
			l-184-0.3L70.6,20.8z"/>
		<path id="XMLID_58_" class="st8" d="M70.4,20.5c1.3-18.3,17.2-32.3,35.5-31l184,0.3l-3.1,45.5c-1.3,18.3-17.2,32.3-35.5,31
			L67.3,66L70.4,20.5z"/>
		<path id="XMLID_57_" class="st9" d="M70.2,20.3C71.5,2,87.4-12,105.7-10.7l184,0.3l-3.1,45.5c-1.3,18.3-17.2,32.3-35.5,31
			l-184-0.3L70.2,20.3z"/>
		<path id="XMLID_56_" class="st10" d="M70,20.1c1.3-18.3,17.2-32.3,35.5-31l184,0.3l-3.1,45.5c-1.3,18.3-17.2,32.3-35.5,31
			l-184-0.3L70,20.1z"/>
		<path id="XMLID_55_" class="st11" d="M69.8,19.8C71,1.5,87-12.4,105.3-11.2l184,0.3l-3.1,45.5c-1.3,18.3-17.2,32.3-35.5,31
			l-184-0.3L69.8,19.8z"/>
		<path id="XMLID_54_" class="st12" d="M69.6,19.6c1.3-18.3,17.2-32.2,35.5-31l184,0.3L286,34.3c-1.3,18.3-17.2,32.2-35.5,31
			L66.5,65L69.6,19.6z"/>
		<path id="XMLID_53_" class="st13" d="M69.4,19.3c1.3-18.3,17.2-32.2,35.5-31l184,0.3l-3.1,45.5c-1.3,18.3-17.2,32.2-35.5,31
			l-184-0.3L69.4,19.3z"/>
		<path id="XMLID_52_" class="st14" d="M69.2,19.1c1.3-18.3,17.2-32.2,35.5-31l184,0.3l-3.1,45.5c-1.3,18.3-17.2,32.2-35.5,31
			l-184-0.3L69.2,19.1z"/>
		<path id="XMLID_51_" class="st15" d="M69,18.9c1.3-18.3,17.2-32.2,35.5-31l184,0.3l-3.1,45.5c-1.3,18.3-17.2,32.2-35.5,31
			l-184-0.3L69,18.9z"/>
		<path id="XMLID_50_" class="st16" d="M68.8,18.6c1.3-18.3,17.2-32.2,35.5-31l184,0.3l-3.1,45.5c-1.3,18.3-17.2,32.2-35.5,31
			l-184-0.3L68.8,18.6z"/>
		<path id="XMLID_49_" class="st17" d="M68.5,18.4c1.3-18.3,17.2-32.2,35.5-31l184,0.3l-3,45.5c-1.3,18.3-17.2,32.2-35.5,31
			l-184-0.3L68.5,18.4z"/>
		<path id="XMLID_48_" class="st18" d="M68.3,18.2c1.3-18.3,17.2-32.2,35.5-31l184,0.3L284.7,33c-1.3,18.3-17.2,32.2-35.5,31
			l-184-0.3L68.3,18.2z"/>
		<path id="XMLID_47_" class="st19" d="M68.1,17.9c1.3-18.3,17.2-32.2,35.5-31l184,0.3l-3.1,45.5c-1.3,18.3-17.2,32.2-35.5,31
			L65,63.4L68.1,17.9z"/>
		<path id="XMLID_46_" class="st20" d="M67.9,17.7c1.3-18.3,17.2-32.2,35.5-31l184,0.3l-3.1,45.5c-1.3,18.3-17.2,32.2-35.5,31
			l-184-0.3L67.9,17.7z"/>
		<path id="XMLID_45_" class="st21" d="M67.7,17.4c1.2-18.3,17.2-32.2,35.5-31l184,0.3l-3.1,45.5c-1.2,18.3-17.2,32.2-35.5,31
			l-184-0.3L67.7,17.4z"/>
		<path id="XMLID_44_" class="st22" d="M67.5,17.2C68.8-1.1,84.7-15,103-13.8l184,0.3L283.9,32c-1.2,18.3-17.2,32.2-35.5,31
			l-184-0.3L67.5,17.2z"/>
		<path id="XMLID_43_" class="st23" d="M67.3,17c1.2-18.3,17.2-32.2,35.5-31l184,0.3l-3.1,45.5c-1.2,18.3-17.2,32.2-35.5,31
			l-184-0.3L67.3,17z"/>
		<path id="XMLID_42_" class="st24" d="M67.1,16.7c1.2-18.3,17.2-32.2,35.5-31l184,0.3l-3.1,45.5c-1.2,18.3-17.2,32.2-35.5,31
			L64,62.2L67.1,16.7z"/>
		<path id="XMLID_41_" class="st25" d="M66.9,16.5c1.2-18.3,17.2-32.2,35.5-31l184,0.3l-3.1,45.5c-1.2,18.3-17.2,32.2-35.5,31
			L63.8,62L66.9,16.5z"/>
		<path id="XMLID_40_" class="st26" d="M66.7,16.3C68-2.1,83.9-16,102.2-14.7l184,0.3L283.1,31c-1.2,18.3-17.2,32.2-35.5,31
			l-184-0.3L66.7,16.3z"/>
		<path id="XMLID_39_" class="st27" d="M66.5,16C67.7-2.3,83.7-16.2,102-15l184,0.3l-3.1,45.5c-1.2,18.3-17.2,32.2-35.5,31l-184-0.3
			L66.5,16z"/>
		<path id="XMLID_38_" class="st28" d="M66.3,15.8c1.2-18.3,17.2-32.2,35.5-31l184,0.3l-3.1,45.5c-1.2,18.3-17.2,32.2-35.5,31
			l-184-0.3L66.3,15.8z"/>
		<path id="XMLID_37_" class="st29" d="M66.1,15.5c1.2-18.3,17.2-32.2,35.5-31l184,0.3l-3.1,45.5c-1.2,18.3-17.2,32.2-35.5,31L63,61
			L66.1,15.5z"/>
		<path id="XMLID_36_" class="st30" d="M65.9,15.3C67.1-3,83-16.9,101.4-15.7l184,0.3l-3.1,45.5c-1.2,18.3-17.2,32.2-35.5,31
			l-184-0.3L65.9,15.3z"/>
		<path id="XMLID_35_" class="st31" d="M65.7,15.1c1.2-18.3,17.2-32.2,35.5-31l184,0.3L282,29.8c-1.2,18.3-17.2,32.2-35.5,31
			l-184-0.3L65.7,15.1z"/>
		<path id="XMLID_33_" class="st32" d="M65.5,14.8c1.2-18.3,17.2-32.2,35.5-31l184,0.3l-3.1,45.5c-1.2,18.3-17.2,32.2-35.5,31
			l-184-0.3L65.5,14.8z"/>
	</g>
	
		<linearGradient id="XMLID_72_" gradientUnits="userSpaceOnUse" x1="63.369" y1="24.1153" x2="280.4045" y2="24.1153" gradientTransform="matrix(0.9977 6.804908e-002 6.804908e-002 -0.9977 0.5175 34.5631)">
		<stop  offset="0" style="stop-color:#FFFFFF"/>
		<stop  offset="1" style="stop-color:#D1D2D4"/>
	</linearGradient>
	<path id="XMLID_70_" class="st33" d="M284.6-16c0.2,0,0.4,0.2,0.4,0.4l-3.1,45.1c-1.3,18.4-17.2,32.3-35.6,31L62.7,60.4
		c-0.2,0-0.4-0.2-0.4-0.4l3.1-45.1c1.3-18.4,17.2-32.3,35.6-31L284.6-16z"/>
	
		<linearGradient id="XMLID_73_" gradientUnits="userSpaceOnUse" x1="64.191" y1="24.065" x2="279.5894" y2="24.065" gradientTransform="matrix(0.9977 6.804908e-002 6.804908e-002 -0.9977 0.5175 34.5631)">
		<stop  offset="0" style="stop-color:#D1D2D4"/>
		<stop  offset="1" style="stop-color:#FFFFFF"/>
	</linearGradient>
	<path id="XMLID_69_" class="st34" d="M63.2,59.2l3-44.3c1.2-18,16.8-31.5,34.7-30.3l182.8,0.3c0.2,0,0.4,0.2,0.4,0.4l-3,44.3
		c-1.2,17.9-16.8,31.5-34.7,30.3L63.6,59.6C63.3,59.6,63.2,59.4,63.2,59.2z"/>
	<g id="XMLID_78_">
		<path id="XMLID_2_" class="st1" d="M80.1,21.1C81,8.3,92.1-1.3,104.8-0.5h0.3l173.6,0.2l-2.4,34.8c-0.9,12.8-12,22.4-24.7,21.6
			h-0.3L77.7,55.9L80.1,21.1z"/>
		<path id="XMLID_32_" class="st2" d="M79.9,20.9c0.9-12.8,12-22.4,24.7-21.6h0.3l173.6,0.2l-2.4,34.8c-0.9,12.8-12,22.4-24.7,21.6
			h-0.3L77.5,55.7L79.9,20.9z"/>
		<path id="XMLID_31_" class="st3" d="M79.8,20.8C80.7,8,91.8-1.6,104.5-0.8h0.3l173.6,0.2L276,34.1c-0.9,12.8-12,22.4-24.7,21.6
			H251L77.4,55.5L79.8,20.8z"/>
		<path id="XMLID_30_" class="st4" d="M79.6,20.6C80.5,7.8,91.6-1.8,104.3-1h0.3l173.6,0.2L275.8,34c-0.9,12.8-12,22.4-24.7,21.6
			h-0.3L77.3,55.4L79.6,20.6z"/>
		<path id="XMLID_29_" class="st5" d="M79.5,20.4C80.4,7.6,91.5-2,104.2-1.2h0.3L278-1l-2.4,34.8c-0.9,12.8-12,22.4-24.7,21.6h-0.3
			L77.1,55.2L79.5,20.4z"/>
		<path id="XMLID_28_" class="st6" d="M79.3,20.2C80.2,7.4,91.3-2.2,104-1.4h0.3l173.6,0.2l-2.4,34.8c-0.9,12.8-12,22.4-24.7,21.6
			h-0.3L77,55L79.3,20.2z"/>
		<path id="XMLID_27_" class="st7" d="M79.2,20c0.9-12.8,12-22.4,24.7-21.6h0.3l173.5,0.2l-2.4,34.8c-0.9,12.8-12,22.4-24.7,21.6
			h-0.3L76.8,54.8L79.2,20z"/>
		<path id="XMLID_26_" class="st8" d="M79.1,19.9C80,7.1,91.1-2.5,103.8-1.7h0.3l173.5,0.2l-2.4,34.8c-0.9,12.8-12,22.4-24.7,21.6
			h-0.3L76.7,54.6L79.1,19.9z"/>
		<path id="XMLID_25_" class="st9" d="M78.9,19.7c0.9-12.8,12-22.4,24.7-21.6h0.3l173.5,0.2L275,33.1c-0.9,12.8-12,22.4-24.7,21.6
			H250L76.5,54.4L78.9,19.7z"/>
		<path id="XMLID_24_" class="st10" d="M78.8,19.5c0.9-12.8,12-22.4,24.7-21.6h0.3l173.5,0.2l-2.4,34.8c-0.9,12.8-12,22.4-24.7,21.6
			h-0.3L76.4,54.3L78.8,19.5z"/>
		<path id="XMLID_23_" class="st11" d="M78.6,19.3c0.9-12.8,12-22.4,24.7-21.5h0.3L277.1-2l-2.4,34.8c-0.9,12.8-12,22.4-24.7,21.5
			h-0.3L76.3,54.1L78.6,19.3z"/>
		<path id="XMLID_22_" class="st12" d="M78.5,19.1c0.9-12.8,12-22.4,24.7-21.5h0.3L277-2.2l-2.4,34.8c-0.9,12.8-12,22.4-24.7,21.5
			h-0.3L76.1,53.9L78.5,19.1z"/>
		<path id="XMLID_21_" class="st13" d="M78.3,19C79.2,6.2,90.3-3.5,103-2.6h0.3l173.5,0.2l-2.4,34.8c-0.9,12.7-11.9,22.4-24.7,21.5
			h-0.3L76,53.7L78.3,19z"/>
		<path id="XMLID_20_" class="st14" d="M78.2,18.8C79.1,6,90.1-3.6,102.9-2.8h0.3l173.5,0.2l-2.4,34.7
			c-0.9,12.7-11.9,22.4-24.7,21.5h-0.3L75.8,53.5L78.2,18.8z"/>
		<path id="XMLID_19_" class="st15" d="M78.1,18.6C78.9,5.8,90-3.8,102.8-2.9h0.3l173.5,0.2L274.2,32c-0.9,12.7-11.9,22.4-24.7,21.5
			h-0.3L75.7,53.3L78.1,18.6z"/>
		<path id="XMLID_18_" class="st16" d="M77.9,18.4C78.8,5.7,89.9-4,102.6-3.1h0.3L276.4-3L274,31.8c-0.9,12.7-11.9,22.4-24.7,21.5
			H249L75.5,53.2L77.9,18.4z"/>
		<path id="XMLID_17_" class="st17" d="M77.8,18.2C78.7,5.5,89.7-4.2,102.5-3.3h0.3l173.5,0.2l-2.4,34.7
			c-0.9,12.8-12,22.4-24.7,21.5h-0.3L75.4,53L77.8,18.2z"/>
		<path id="XMLID_16_" class="st18" d="M77.6,18C78.5,5.3,89.5-4.4,102.3-3.5h0.3l173.5,0.2l-2.4,34.7C272.9,44.2,261.8,53.8,249,53
			h-0.3L75.3,52.8L77.6,18z"/>
		<path id="XMLID_15_" class="st19" d="M77.5,17.9C78.4,5.2,89.4-4.5,102.2-3.6h0.3L276-3.5l-2.4,34.7
			c-0.9,12.7-11.9,22.4-24.7,21.5h-0.3L75.1,52.6L77.5,17.9z"/>
		<path id="XMLID_14_" class="st20" d="M77.3,17.7C78.2,4.9,89.3-4.7,102-3.8h0.3l173.5,0.2l-2.4,34.7
			c-0.9,12.7-11.9,22.4-24.7,21.5h-0.3L75,52.4L77.3,17.7z"/>
		<path id="XMLID_13_" class="st21" d="M77.2,17.5C78.1,4.8,89.1-4.9,101.9-4h0.3l173.5,0.2l-2.4,34.7
			c-0.9,12.7-11.9,22.4-24.7,21.5h-0.3L74.8,52.2L77.2,17.5z"/>
		<path id="XMLID_12_" class="st22" d="M77.1,17.3C77.9,4.6,89-5.1,101.7-4.2h0.3L275.5-4l-2.4,34.7c-0.9,12.7-11.9,22.4-24.7,21.5
			h-0.3L74.7,52.1L77.1,17.3z"/>
		<path id="XMLID_11_" class="st23" d="M76.9,17.1C77.8,4.4,88.8-5.3,101.6-4.4h0.3l173.5,0.2L273,30.5
			c-0.9,12.7-11.9,22.4-24.7,21.5H248L74.5,51.9L76.9,17.1z"/>
		<path id="XMLID_10_" class="st24" d="M76.8,17C77.7,4.3,88.7-5.4,101.5-4.5h0.3l173.5,0.2l-2.4,34.7C272,43.1,261,52.8,248.2,51.9
			h-0.3L74.4,51.7L76.8,17z"/>
		<path id="XMLID_9_" class="st25" d="M76.6,16.8C77.5,4.1,88.5-5.6,101.3-4.7h0.3l173.5,0.2l-2.4,34.7
			c-0.9,12.7-11.9,22.4-24.7,21.5h-0.3L74.3,51.5L76.6,16.8z"/>
		<path id="XMLID_8_" class="st26" d="M76.5,16.6C77.4,3.9,88.4-5.8,101.2-4.9h0.3L275-4.7L272.5,30c-0.9,12.7-11.9,22.4-24.7,21.5
			h-0.3L74.1,51.3L76.5,16.6z"/>
		<path id="XMLID_7_" class="st27" d="M76.3,16.4C77.2,3.7,88.3-6,101-5.1h0.3l173.5,0.2l-2.4,34.7c-0.9,12.7-11.9,22.4-24.7,21.5
			h-0.3L74,51.1L76.3,16.4z"/>
		<path id="XMLID_6_" class="st28" d="M76.2,16.2C77.1,3.5,88.1-6.2,100.9-5.3h0.3l173.5,0.2l-2.4,34.7
			c-0.9,12.7-11.9,22.4-24.7,21.5h-0.3L73.8,51L76.2,16.2z"/>
		<path id="XMLID_5_" class="st29" d="M76.1,16.1C76.9,3.3,88-6.3,100.7-5.4h0.3l173.5,0.2l-2.4,34.7c-0.9,12.7-11.9,22.4-24.7,21.5
			h-0.3L73.7,50.8L76.1,16.1z"/>
		<path id="XMLID_4_" class="st30" d="M75.9,15.9C76.8,3.2,87.8-6.5,100.6-5.6h0.3l173.5,0.2L272,29.3c-0.9,12.7-12,22.3-24.7,21.5
			H247L73.5,50.6L75.9,15.9z"/>
		<path id="XMLID_3_" class="st31" d="M75.8,15.7C76.6,3,87.7-6.7,100.4-5.8h0.3l173.5,0.2l-2.4,34.7c-0.9,12.7-11.9,22.4-24.6,21.5
			h-0.3L73.4,50.4L75.8,15.7z"/>
		<path id="XMLID_1_" class="st32" d="M75.6,15.5C76.5,2.8,87.6-6.8,100.3-6h0.3L274-5.8l-2.4,34.7c-0.9,12.7-11.9,22.4-24.6,21.5
			h-0.3L73.3,50.2L75.6,15.5z"/>
	</g>
	
		<linearGradient id="XMLID_74_" gradientUnits="userSpaceOnUse" x1="73.5101" y1="24.0654" x2="270.2702" y2="24.0654" gradientTransform="matrix(0.9977 6.804908e-002 6.804908e-002 -0.9977 0.5175 34.5631)">
		<stop  offset="0" style="stop-color:#25A1D8"/>
		<stop  offset="1" style="stop-color:#1E8AC5"/>
	</linearGradient>
	<path id="XMLID_66_" class="st35" d="M100.5-6l173.2,0.2c0.2,0,0.4,0.2,0.4,0.4L271.8,29c-0.9,12.8-12,22.4-24.7,21.6h-0.3
		L73.6,50.3c-0.2,0-0.4-0.2-0.4-0.4l2.3-34.4c0.9-12.8,12-22.4,24.7-21.6L100.5-6z"/>
	
		<linearGradient id="XMLID_82_" gradientUnits="userSpaceOnUse" x1="74.3998" y1="24.1153" x2="269.3738" y2="24.1153" gradientTransform="matrix(0.9977 6.804908e-002 6.804908e-002 -0.9977 0.5175 34.5631)">
		<stop  offset="0" style="stop-color:#1E8AC5"/>
		<stop  offset="1" style="stop-color:#25A1D8"/>
	</linearGradient>
	<path id="XMLID_65_" class="st36" d="M100.5-5.2l172.3,0.1c0.2,0,0.4,0.2,0.4,0.4l-2.3,33.5c-0.8,12.3-11.5,21.7-23.9,20.8h-0.3
		L74.5,49.5c-0.2,0-0.4-0.2-0.4-0.4l2.3-33.5C77.2,3.3,87.9-6.1,100.3-5.2H100.5z"/>
</g>
<g id="XMLID_77_">
	<g id="XMLID_79_">
		<path id="XMLID_80_" class="st37" d="M107.5,43.4c-10.9,0-19.8-8.9-19.8-19.8s8.9-19.8,19.8-19.8s19.8,8.9,19.8,19.8
			C127.2,34.5,118.4,43.4,107.5,43.4z"/>
	</g>
</g>
<linearGradient id="XMLID_86_" gradientUnits="userSpaceOnUse" x1="88.2" y1="26.4" x2="126.8" y2="26.4" gradientTransform="matrix(1 0 0 -1 0 50)">
	<stop  offset="0" style="stop-color:#1E8AC5"/>
	<stop  offset="1" style="stop-color:#25A1D8"/>
</linearGradient>
<circle id="XMLID_76_" class="st38" cx="107.5" cy="23.6" r="19.3"/>
<path id="XMLID_90_" class="st37" d="M109,17.9h1.9c0.1,0,0.1,0,0.2-0.1l0.2-0.2h-0.2v-2.7c0-0.1-0.1-0.2-0.2-0.2h-2.3
	c-2.7,0-3.9,1.2-3.9,3.5v2.2c0,0.1-0.1,0.2-0.2,0.2h-1.4v-0.2l-0.2,0.2c0,0-0.1,0.1-0.1,0.2v2.8c0,0.1,0.1,0.2,0.2,0.2h1.4
	c0.1,0,0.2,0.1,0.2,0.2v8.6c0,0.1,0.1,0.2,0.2,0.2h3.2c0.1,0,0.1,0,0.2-0.1l0.2-0.2h-0.2v-8.7c0-0.1,0.1-0.2,0.2-0.2h2.2
	c0.1,0,0.1,0,0.2-0.1l0.2-0.2h-0.2l0.2-2.6c0-0.1-0.1-0.3-0.2-0.3h-2.3c-0.1,0-0.2-0.1-0.2-0.2v-1.5C108.1,18.1,108.3,17.9,109,17.9
	z"/>
<g id="XMLID_75_">
	<path id="XMLID_83_" class="st37" d="M104.7,32.6h3.6v-9.1h2.5l0.3-3.1h-2.8c0,0,0-1.1,0-1.7c0-0.7,0.1-1,0.8-1c0.6,0,2,0,2,0v-3.2
		c0,0-2.1,0-2.5,0c-2.7,0-3.9,1.2-3.9,3.5c0,2,0,2.4,0,2.4h-1.9v3.1h1.9C104.7,23.5,104.7,32.6,104.7,32.6z"/>
</g>
<g id="XMLID_81_">
	<path id="XMLID_85_" class="st37" d="M130,26.3v-3.5h-0.6v-0.6h0.6V22c0-0.6,0.1-1.1,0.5-1.4c0.3-0.3,0.7-0.4,1-0.4
		s0.5,0.1,0.6,0.1l-0.1,0.5c-0.1-0.1-0.3-0.1-0.5-0.1c-0.6,0-0.8,0.6-0.8,1.2v0.2h1v0.6h-1v3.5L130,26.3L130,26.3z"/>
	<path id="XMLID_87_" class="st37" d="M134.7,26.3l-0.1-0.5l0,0c-0.2,0.3-0.7,0.6-1.3,0.6c-0.8,0-1.3-0.6-1.3-1.2
		c0-1,0.9-1.5,2.5-1.5v-0.1c0-0.3-0.1-1-0.9-1c-0.4,0-0.8,0.1-1.1,0.3l-0.2-0.5c0.3-0.2,0.8-0.4,1.4-0.4c1.3,0,1.6,0.9,1.6,1.7v1.5
		c0,0.4,0,0.7,0.1,1h-0.7V26.3z M134.6,24.2c-0.8,0-1.7,0.1-1.7,0.9c0,0.5,0.3,0.7,0.7,0.7c0.5,0,0.9-0.3,1-0.7c0-0.1,0-0.2,0-0.2
		V24.2z"/>
	<path id="XMLID_91_" class="st37" d="M139.5,26.1c-0.2,0.1-0.6,0.2-1.2,0.2c-1.2,0-2-0.8-2-2.1s0.9-2.2,2.2-2.2
		c0.4,0,0.8,0.1,1,0.2l-0.2,0.6c-0.2-0.1-0.5-0.2-0.9-0.2c-0.9,0-1.5,0.7-1.5,1.6c0,1,0.6,1.5,1.4,1.5c0.4,0,0.7-0.1,0.9-0.2
		L139.5,26.1z"/>
	<path id="XMLID_93_" class="st37" d="M140.7,24.3c0,1,0.7,1.4,1.4,1.4c0.5,0,0.9-0.1,1.1-0.2l0.1,0.5c-0.3,0.1-0.7,0.3-1.4,0.3
		c-1.3,0-2-0.8-2-2.1s0.7-2.2,1.9-2.2c1.3,0,1.7,1.2,1.7,1.9c0,0.2,0,0.3,0,0.3L140.7,24.3L140.7,24.3z M142.9,23.8
		c0-0.5-0.2-1.2-1-1.2c-0.8,0-1.1,0.7-1.1,1.2H142.9z"/>
	<path id="XMLID_96_" class="st37" d="M144.5,26.3c0-0.3,0-0.7,0-1.1v-5h0.7v2.6l0,0c0.3-0.5,0.7-0.8,1.4-0.8c1,0,1.7,0.9,1.7,2.1
		c0,1.5-0.9,2.2-1.8,2.2c-0.6,0-1.1-0.2-1.4-0.8l0,0v0.7L144.5,26.3L144.5,26.3z M145.3,24.6c0,0.1,0,0.2,0,0.3
		c0.1,0.5,0.6,0.9,1.1,0.9c0.8,0,1.2-0.6,1.2-1.6c0-0.8-0.4-1.5-1.2-1.5c-0.5,0-1,0.3-1.1,0.9c0,0.1,0,0.2,0,0.3V24.6z"/>
	<path id="XMLID_99_" class="st37" d="M153.1,24.2c0,1.5-1.1,2.2-2,2.2c-1.1,0-2-0.8-2-2.1c0-1.4,0.9-2.2,2-2.2
		C152.3,22.1,153.1,22.9,153.1,24.2z M149.8,24.2c0,0.9,0.5,1.6,1.2,1.6s1.2-0.7,1.2-1.6c0-0.7-0.3-1.6-1.2-1.6
		S149.8,23.4,149.8,24.2z"/>
	<path id="XMLID_102_" class="st37" d="M157.8,24.2c0,1.5-1.1,2.2-2,2.2c-1.1,0-2-0.8-2-2.1c0-1.4,0.9-2.2,2-2.2
		C157,22.1,157.8,22.9,157.8,24.2z M154.5,24.2c0,0.9,0.5,1.6,1.2,1.6s1.2-0.7,1.2-1.6c0-0.7-0.3-1.6-1.2-1.6S154.5,23.4,154.5,24.2
		z"/>
	<path id="XMLID_105_" class="st37" d="M159.5,24L159.5,24c0.1-0.1,0.3-0.3,0.4-0.5l1.2-1.4h0.9l-1.6,1.7l1.8,2.4h-0.9l-1.4-2
		l-0.4,0.4v1.5h-0.7v-6h0.7V24z"/>
	<path id="XMLID_107_" class="st37" d="M162.7,25.8c0-0.3,0.2-0.5,0.5-0.5s0.5,0.2,0.5,0.5s-0.2,0.5-0.5,0.5
		C162.9,26.4,162.7,26.1,162.7,25.8z"/>
	<path id="XMLID_109_" class="st37" d="M167.5,26.1c-0.2,0.1-0.6,0.2-1.2,0.2c-1.2,0-2-0.8-2-2.1s0.9-2.2,2.2-2.2
		c0.4,0,0.8,0.1,1,0.2l-0.2,0.6c-0.2-0.1-0.5-0.2-0.9-0.2c-0.9,0-1.5,0.7-1.5,1.6c0,1,0.6,1.5,1.4,1.5c0.4,0,0.7-0.1,0.9-0.2
		L167.5,26.1z"/>
	<path id="XMLID_111_" class="st37" d="M172.1,24.2c0,1.5-1.1,2.2-2,2.2c-1.1,0-2-0.8-2-2.1c0-1.4,0.9-2.2,2-2.2
		C171.3,22.1,172.1,22.9,172.1,24.2z M168.8,24.2c0,0.9,0.5,1.6,1.2,1.6s1.2-0.7,1.2-1.6c0-0.7-0.3-1.6-1.2-1.6
		S168.8,23.4,168.8,24.2z"/>
	<path id="XMLID_114_" class="st37" d="M173,23.3c0-0.4,0-0.8,0-1.1h0.7v0.7l0,0c0.2-0.4,0.6-0.8,1.3-0.8c0.6,0,1,0.3,1.2,0.8l0,0
		c0.1-0.2,0.3-0.4,0.5-0.5c0.2-0.2,0.5-0.3,0.9-0.3c0.5,0,1.4,0.4,1.4,1.8v2.4h-0.7V24c0-0.8-0.3-1.3-0.9-1.3
		c-0.4,0-0.8,0.3-0.9,0.7c0,0.1-0.1,0.2-0.1,0.4v2.5h-0.7v-2.5c0-0.7-0.3-1.1-0.9-1.1c-0.5,0-0.8,0.4-0.9,0.7c0,0.1-0.1,0.2-0.1,0.4
		v2.5H173V23.3z"/>
	<path id="XMLID_116_" class="st37" d="M179.5,26.6l2.4-6.2h0.6l-2.4,6.2H179.5z"/>
	<path id="XMLID_119_" class="st37" d="M182.9,25.5c0.2,0.1,0.6,0.3,1,0.3c0.5,0,0.8-0.3,0.8-0.6c0-0.4-0.2-0.6-0.8-0.8
		c-0.7-0.3-1.1-0.7-1.1-1.2c0-0.7,0.5-1.2,1.4-1.2c0.4,0,0.8,0.1,1,0.3l-0.2,0.5c-0.2-0.1-0.5-0.2-0.8-0.2c-0.4,0-0.7,0.3-0.7,0.6
		s0.2,0.5,0.8,0.7c0.7,0.3,1.1,0.6,1.1,1.2c0,0.7-0.6,1.2-1.5,1.2c-0.5,0-0.9-0.1-1.2-0.3L182.9,25.5z"/>
	<path id="XMLID_122_" class="st37" d="M188.7,26.3l-0.1-0.5l0,0c-0.2,0.3-0.7,0.6-1.3,0.6c-0.8,0-1.3-0.6-1.3-1.2
		c0-1,0.9-1.5,2.5-1.5v-0.1c0-0.3-0.1-1-0.9-1c-0.4,0-0.8,0.1-1.1,0.3l-0.2-0.5c0.3-0.2,0.8-0.4,1.4-0.4c1.3,0,1.6,0.9,1.6,1.7v1.5
		c0,0.4,0,0.7,0.1,1h-0.7V26.3z M188.6,24.2c-0.8,0-1.7,0.1-1.7,0.9c0,0.5,0.3,0.7,0.7,0.7c0.5,0,0.9-0.3,1-0.7c0-0.1,0-0.2,0-0.2
		V24.2z"/>
	<path id="XMLID_125_" class="st37" d="M190.5,23.3c0-0.4,0-0.8,0-1.1h0.7v0.7l0,0c0.2-0.4,0.7-0.8,1.4-0.8c0.6,0,1.5,0.3,1.5,1.8
		v2.5h-0.7V24c0-0.7-0.2-1.2-1-1.2c-0.5,0-0.9,0.3-1,0.8c0,0.1-0.1,0.2-0.1,0.3v2.5h-0.7L190.5,23.3L190.5,23.3z"/>
	<path id="XMLID_127_" class="st37" d="M196.1,21v1.2h1.1v0.6h-1.1V25c0,0.5,0.1,0.8,0.6,0.8c0.2,0,0.3,0,0.4-0.1v0.6
		c-0.1,0.1-0.4,0.1-0.7,0.1s-0.6-0.1-0.8-0.3s-0.3-0.6-0.3-1.1v-2.2h-0.6v-0.6h0.6v-1L196.1,21z"/>
	<path id="XMLID_129_" class="st37" d="M201.7,24.2c0,1.5-1.1,2.2-2,2.2c-1.1,0-2-0.8-2-2.1c0-1.4,0.9-2.2,2-2.2
		C200.9,22.1,201.7,22.9,201.7,24.2z M198.4,24.2c0,0.9,0.5,1.6,1.3,1.6c0.7,0,1.2-0.7,1.2-1.6c0-0.7-0.3-1.6-1.2-1.6
		S198.4,23.4,198.4,24.2z"/>
	<path id="XMLID_132_" class="st37" d="M202.5,25.5c0.2,0.1,0.6,0.3,1,0.3c0.5,0,0.8-0.3,0.8-0.6c0-0.4-0.2-0.6-0.8-0.8
		c-0.7-0.3-1.1-0.7-1.1-1.2c0-0.7,0.5-1.2,1.4-1.2c0.4,0,0.8,0.1,1,0.3l-0.2,0.5c-0.2-0.1-0.5-0.2-0.8-0.2c-0.4,0-0.7,0.3-0.7,0.6
		s0.2,0.5,0.8,0.7c0.7,0.3,1.1,0.6,1.1,1.2c0,0.7-0.6,1.2-1.5,1.2c-0.5,0-0.9-0.1-1.2-0.3L202.5,25.5z"/>
	<path id="XMLID_134_" class="st37" d="M206.9,21v1.2h1.1v0.6h-1.1V25c0,0.5,0.1,0.8,0.6,0.8c0.2,0,0.3,0,0.4-0.1v0.6
		c-0.1,0.1-0.4,0.1-0.7,0.1s-0.6-0.1-0.8-0.3s-0.3-0.6-0.3-1.1v-2.2h-0.6v-0.6h0.6v-1L206.9,21z"/>
	<path id="XMLID_136_" class="st37" d="M212.5,24.2c0,1.5-1.1,2.2-2,2.2c-1.1,0-2-0.8-2-2.1c0-1.4,0.9-2.2,2-2.2
		C211.7,22.1,212.5,22.9,212.5,24.2z M209.2,24.2c0,0.9,0.5,1.6,1.3,1.6c0.7,0,1.2-0.7,1.2-1.6c0-0.7-0.3-1.6-1.2-1.6
		S209.2,23.4,209.2,24.2z"/>
	<path id="XMLID_139_" class="st37" d="M213.4,20.2h0.7v6h-0.7V20.2z"/>
	<path id="XMLID_141_" class="st37" d="M215.8,24.3c0,1,0.7,1.4,1.4,1.4c0.5,0,0.9-0.1,1.1-0.2l0.1,0.5c-0.3,0.1-0.7,0.3-1.4,0.3
		c-1.3,0-2-0.8-2-2.1s0.7-2.2,1.9-2.2c1.3,0,1.7,1.2,1.7,1.9c0,0.2,0,0.3,0,0.3L215.8,24.3L215.8,24.3z M218,23.8
		c0-0.5-0.2-1.2-1-1.2s-1.1,0.7-1.1,1.2H218z"/>
	<path id="XMLID_144_" class="st37" d="M223.2,20.2v5c0,0.4,0,0.8,0,1.1h-0.7v-0.7l0,0c-0.2,0.5-0.7,0.8-1.4,0.8
		c-1,0-1.8-0.8-1.8-2.1c0-1.4,0.8-2.2,1.8-2.2c0.6,0,1.1,0.3,1.2,0.6l0,0v-2.5C222.3,20.2,223.2,20.2,223.2,20.2z M222.5,23.8
		c0-0.1,0-0.2,0-0.3c-0.1-0.5-0.5-0.9-1.1-0.9c-0.8,0-1.2,0.7-1.2,1.6c0,0.8,0.4,1.5,1.2,1.5c0.5,0,1-0.3,1.1-0.9c0-0.1,0-0.2,0-0.3
		V23.8z"/>
	<path id="XMLID_147_" class="st37" d="M228.2,24.2c0,1.5-1.1,2.2-2,2.2c-1.1,0-2-0.8-2-2.1c0-1.4,0.9-2.2,2-2.2
		C227.4,22.1,228.2,22.9,228.2,24.2z M224.9,24.2c0,0.9,0.5,1.6,1.3,1.6c0.7,0,1.2-0.7,1.2-1.6c0-0.7-0.3-1.6-1.2-1.6
		S224.9,23.4,224.9,24.2z"/>
	<path id="XMLID_150_" class="st37" d="M231.4,26.3l-0.1-0.5l0,0c-0.2,0.3-0.7,0.6-1.3,0.6c-0.8,0-1.3-0.6-1.3-1.2
		c0-1,0.9-1.5,2.5-1.5v-0.1c0-0.3-0.1-1-0.9-1c-0.4,0-0.8,0.1-1.1,0.3l-0.2-0.5c0.3-0.2,0.8-0.4,1.4-0.4c1.3,0,1.6,0.9,1.6,1.7v1.5
		c0,0.4,0,0.7,0.1,1h-0.7V26.3z M231.3,24.2c-0.8,0-1.7,0.1-1.7,0.9c0,0.5,0.3,0.7,0.7,0.7c0.5,0,0.9-0.3,1-0.7c0-0.1,0-0.2,0-0.2
		V24.2z"/>
	<path id="XMLID_153_" class="st37" d="M236.8,20.2v5c0,0.4,0,0.8,0,1.1h-0.7v-0.7l0,0c-0.2,0.5-0.7,0.8-1.4,0.8
		c-1,0-1.8-0.8-1.8-2.1c0-1.4,0.8-2.2,1.8-2.2c0.6,0,1.1,0.3,1.2,0.6l0,0v-2.5C235.9,20.2,236.8,20.2,236.8,20.2z M236,23.8
		c0-0.1,0-0.2,0-0.3c-0.1-0.5-0.5-0.9-1.1-0.9c-0.8,0-1.2,0.7-1.2,1.6c0,0.8,0.4,1.5,1.2,1.5c0.5,0,1-0.3,1.1-0.9c0-0.1,0-0.2,0-0.3
		V23.8z"/>
	<path id="XMLID_156_" class="st37" d="M238.3,22.2l0.8,2.3c0.1,0.4,0.2,0.7,0.3,1.1l0,0c0.1-0.3,0.2-0.7,0.3-1.1l0.8-2.3h0.8
		l-1.6,4.1H239l-1.6-4.1H238.3z"/>
	<path id="XMLID_158_" class="st37" d="M245.7,24.2c0,1.5-1.1,2.2-2,2.2c-1.1,0-2-0.8-2-2.1c0-1.4,0.9-2.2,2-2.2
		C244.9,22.1,245.7,22.9,245.7,24.2z M242.5,24.2c0,0.9,0.5,1.6,1.3,1.6c0.7,0,1.2-0.7,1.2-1.6c0-0.7-0.3-1.6-1.2-1.6
		S242.5,23.4,242.5,24.2z"/>
	<path id="XMLID_161_" class="st37" d="M250.2,22.2c0,0.3,0,0.6,0,1.1v2.4c0,0.9-0.2,1.5-0.6,1.9c-0.4,0.4-1,0.5-1.5,0.5
		s-1-0.1-1.4-0.3l0.2-0.6c0.3,0.2,0.7,0.3,1.2,0.3c0.8,0,1.3-0.4,1.3-1.4v-0.5l0,0c-0.2,0.4-0.7,0.7-1.3,0.7c-1,0-1.8-0.9-1.8-2
		c0-1.4,0.9-2.2,1.9-2.2c0.7,0,1.1,0.4,1.3,0.7l0,0v-0.6C249.5,22.2,250.2,22.2,250.2,22.2z M249.5,23.8c0-0.1,0-0.2,0-0.3
		c-0.1-0.4-0.5-0.8-1-0.8c-0.7,0-1.2,0.6-1.2,1.6c0,0.8,0.4,1.5,1.2,1.5c0.5,0,0.9-0.3,1-0.8c0-0.1,0.1-0.3,0.1-0.4v-0.8H249.5z"/>
	<path id="XMLID_164_" class="st37" d="M253.7,26.3l-0.1-0.5l0,0c-0.2,0.3-0.7,0.6-1.3,0.6c-0.8,0-1.3-0.6-1.3-1.2
		c0-1,0.9-1.5,2.5-1.5v-0.1c0-0.3-0.1-1-0.9-1c-0.4,0-0.8,0.1-1.1,0.3l-0.2-0.5c0.3-0.2,0.8-0.4,1.4-0.4c1.3,0,1.6,0.9,1.6,1.7v1.5
		c0,0.4,0,0.7,0.1,1h-0.7V26.3z M253.6,24.2c-0.8,0-1.7,0.1-1.7,0.9c0,0.5,0.3,0.7,0.7,0.7c0.5,0,0.9-0.3,1-0.7c0-0.1,0-0.2,0-0.2
		V24.2z"/>
	<path id="XMLID_167_" class="st37" d="M259.1,20.2v5c0,0.4,0,0.8,0,1.1h-0.7v-0.7l0,0c-0.2,0.5-0.7,0.8-1.4,0.8
		c-1,0-1.8-0.8-1.8-2.1c0-1.4,0.8-2.2,1.8-2.2c0.6,0,1.1,0.3,1.2,0.6l0,0v-2.5C258.2,20.2,259.1,20.2,259.1,20.2z M258.3,23.8
		c0-0.1,0-0.2,0-0.3c-0.1-0.5-0.5-0.9-1.1-0.9c-0.8,0-1.2,0.7-1.2,1.6c0,0.8,0.4,1.5,1.2,1.5c0.5,0,1-0.3,1.1-0.9c0-0.1,0-0.2,0-0.3
		V23.8z"/>
	<path id="XMLID_170_" class="st37" d="M264.1,24.2c0,1.5-1.1,2.2-2,2.2c-1.1,0-2-0.8-2-2.1c0-1.4,0.9-2.2,2-2.2
		C263.3,22.1,264.1,22.9,264.1,24.2z M260.8,24.2c0,0.9,0.5,1.6,1.3,1.6c0.7,0,1.2-0.7,1.2-1.6c0-0.7-0.3-1.6-1.2-1.6
		S260.8,23.4,260.8,24.2z"/>
	<path id="XMLID_173_" class="st37" d="M264.9,25.5c0.2,0.1,0.6,0.3,1,0.3c0.5,0,0.8-0.3,0.8-0.6c0-0.4-0.2-0.6-0.8-0.8
		c-0.7-0.3-1.1-0.7-1.1-1.2c0-0.7,0.5-1.2,1.4-1.2c0.4,0,0.8,0.1,1,0.3l-0.2,0.5c-0.2-0.1-0.5-0.2-0.8-0.2c-0.4,0-0.7,0.3-0.7,0.6
		s0.2,0.5,0.8,0.7c0.7,0.3,1.1,0.6,1.1,1.2c0,0.7-0.6,1.2-1.5,1.2c-0.5,0-0.9-0.1-1.2-0.3L264.9,25.5z"/>
</g>
<g id="XMLID_84_">
</g>
<g id="XMLID_175_">
</g>
<g id="XMLID_176_">
</g>
<g id="XMLID_177_">
</g>
<g id="XMLID_178_">
</g>
<g id="XMLID_179_">
</g>
</svg>
