<?xml version="1.0" encoding="utf-8"?>
<!-- Generator: Adobe Illustrator 19.0.0, SVG Export Plug-In . SVG Version: 6.00 Build 0)  -->
<svg version="1.1" id="Layer_1" xmlns="http://www.w3.org/2000/svg" xmlns:xlink="http://www.w3.org/1999/xlink" x="0px" y="0px"
	 viewBox="50 -25 250 100" style="enable-background:new 50 -25 250 100;" xml:space="preserve">
<style type="text/css">
	.st0{opacity:0.8;}
	.st1{fill:#FFFFFF;fill-opacity:0;}
	.st2{opacity:3.225806e-002;fill:#FDFDFD;enable-background:new    ;}
	.st3{opacity:6.451613e-002;fill:#F9F9F9;enable-background:new    ;}
	.st4{opacity:9.677419e-002;fill:#F5F5F5;enable-background:new    ;}
	.st5{opacity:0.129;fill:#F1F1F1;enable-background:new    ;}
	.st6{opacity:0.1613;fill:#ECEDED;enable-background:new    ;}
	.st7{opacity:0.1935;fill:#E8E8E9;enable-background:new    ;}
	.st8{opacity:0.2258;fill:#E4E4E5;enable-background:new    ;}
	.st9{opacity:0.2581;fill:#DFDFE0;enable-background:new    ;}
	.st10{opacity:0.2903;fill:#DBDBDC;enable-background:new    ;}
	.st11{opacity:0.3226;fill:#D6D6D8;enable-background:new    ;}
	.st12{opacity:0.3548;fill:#D2D2D4;enable-background:new    ;}
	.st13{opacity:0.3871;fill:#CDCDCF;enable-background:new    ;}
	.st14{opacity:0.4194;fill:#C9C8CB;enable-background:new    ;}
	.st15{opacity:0.4516;fill:#C5C4C6;enable-background:new    ;}
	.st16{opacity:0.4839;fill:#C0BFC2;enable-background:new    ;}
	.st17{opacity:0.5161;fill:#BCBBBD;enable-background:new    ;}
	.st18{opacity:0.5484;fill:#B8B7B9;enable-background:new    ;}
	.st19{opacity:0.5806;fill:#B3B2B5;enable-background:new    ;}
	.st20{opacity:0.6129;fill:#AFAEB0;enable-background:new    ;}
	.st21{opacity:0.6452;fill:#ABAAAC;enable-background:new    ;}
	.st22{fill:none;}
	.st23{opacity:0.7097;fill:#A3A2A4;enable-background:new    ;}
	.st24{opacity:0.7419;fill:#9F9EA0;enable-background:new    ;}
	.st25{opacity:0.7742;fill:#9B9A9C;enable-background:new    ;}
	.st26{opacity:0.8065;fill:#979699;enable-background:new    ;}
	.st27{opacity:0.8387;fill:#939395;enable-background:new    ;}
	.st28{opacity:0.871;fill:#8F8F92;enable-background:new    ;}
	.st29{opacity:0.9032;fill:#8B8C8E;enable-background:new    ;}
	.st30{opacity:0.9355;fill:#88888B;enable-background:new    ;}
	.st31{opacity:0.9677;fill:#848588;enable-background:new    ;}
	.st32{fill:#808285;}
	.st33{fill:url(#XMLID_72_);}
	.st34{fill:url(#XMLID_73_);}
	.st35{opacity:0.6774;fill:#A7A6A8;enable-background:new    ;}
	.st36{fill:url(#XMLID_74_);}
	.st37{fill:url(#XMLID_75_);}
	.st38{fill:#FFFFFF;}
	.st39{fill:url(#XMLID_81_);}
	.st40{font-family:'MyriadPro-Regular';}
	.st41{font-size:19.6122px;}
</style>
<g id="XMLID_117_" class="st0">
	<path id="XMLID_34_" class="st1" d="M71.8,22.2c1.3-18.4,17.2-32.3,35.6-31l184.1,0.3L288.3,37c-1.3,18.4-17.2,32.3-35.6,31
		l-184-0.3L71.8,22.2z"/>
	<path id="XMLID_64_" class="st2" d="M71.6,22c1.3-18.4,17.2-32.3,35.6-31l184.1,0.3l-3.1,45.5c-1.3,18.4-17.2,32.3-35.6,31
		L68.5,67.5L71.6,22z"/>
	<path id="XMLID_63_" class="st3" d="M71.4,21.7c1.3-18.4,17.2-32.3,35.6-31L291-9l-3.1,45.5c-1.3,18.4-17.2,32.3-35.6,31l-184-0.3
		L71.4,21.7z"/>
	<path id="XMLID_62_" class="st4" d="M71.2,21.5c1.3-18.4,17.2-32.3,35.5-31l184,0.3l-3.1,45.5c-1.3,18.4-17.2,32.3-35.5,31L68.1,67
		L71.2,21.5z"/>
	<path id="XMLID_61_" class="st5" d="M71,21.2c1.3-18.4,17.2-32.3,35.5-31l184,0.3l-3,45.5c-1.3,18.4-17.2,32.3-35.5,31L68,66.7
		L71,21.2z"/>
	<path id="XMLID_60_" class="st6" d="M70.8,21C72.1,2.7,88-11.3,106.3-10l184,0.3l-3.1,45.5c-1.3,18.4-17.2,32.3-35.5,31l-184-0.3
		L70.8,21z"/>
	<path id="XMLID_59_" class="st7" d="M70.6,20.8c1.3-18.3,17.2-32.3,35.5-31l184,0.3L287,35.6c-1.3,18.3-17.2,32.3-35.5,31l-184-0.3
		L70.6,20.8z"/>
	<path id="XMLID_58_" class="st8" d="M70.4,20.5c1.3-18.3,17.2-32.3,35.5-31l184,0.3l-3.1,45.5c-1.3,18.3-17.2,32.3-35.5,31L67.3,66
		L70.4,20.5z"/>
	<path id="XMLID_57_" class="st9" d="M70.2,20.3C71.5,2,87.4-12,105.7-10.7l184,0.3l-3.1,45.5c-1.3,18.3-17.2,32.3-35.5,31l-184-0.3
		L70.2,20.3z"/>
	<path id="XMLID_56_" class="st10" d="M70,20.1c1.3-18.3,17.2-32.3,35.5-31l184,0.3l-3.1,45.5c-1.3,18.3-17.2,32.3-35.5,31l-184-0.3
		L70,20.1z"/>
	<path id="XMLID_55_" class="st11" d="M69.8,19.8C71,1.5,87-12.4,105.3-11.2l184,0.3l-3.1,45.5c-1.3,18.3-17.2,32.3-35.5,31
		l-184-0.3L69.8,19.8z"/>
	<path id="XMLID_54_" class="st12" d="M69.6,19.6c1.3-18.3,17.2-32.2,35.5-31l184,0.3L286,34.3c-1.3,18.3-17.2,32.2-35.5,31L66.5,65
		L69.6,19.6z"/>
	<path id="XMLID_53_" class="st13" d="M69.4,19.3c1.3-18.3,17.2-32.2,35.5-31l184,0.3l-3.1,45.5c-1.3,18.3-17.2,32.2-35.5,31
		l-184-0.3L69.4,19.3z"/>
	<path id="XMLID_52_" class="st14" d="M69.2,19.1c1.3-18.3,17.2-32.2,35.5-31l184,0.3l-3.1,45.5c-1.3,18.3-17.2,32.2-35.5,31
		l-184-0.3L69.2,19.1z"/>
	<path id="XMLID_51_" class="st15" d="M69,18.9c1.3-18.3,17.2-32.2,35.5-31l184,0.3l-3.1,45.5c-1.3,18.3-17.2,32.2-35.5,31l-184-0.3
		L69,18.9z"/>
	<path id="XMLID_50_" class="st16" d="M68.8,18.6c1.3-18.3,17.2-32.2,35.5-31l184,0.3l-3.1,45.5c-1.3,18.3-17.2,32.2-35.5,31
		l-184-0.3L68.8,18.6z"/>
	<path id="XMLID_49_" class="st17" d="M68.5,18.4c1.3-18.3,17.2-32.2,35.5-31l184,0.3l-3,45.5c-1.3,18.3-17.2,32.2-35.5,31l-184-0.3
		L68.5,18.4z"/>
	<path id="XMLID_48_" class="st18" d="M68.3,18.2c1.3-18.3,17.2-32.2,35.5-31l184,0.3L284.7,33c-1.3,18.3-17.2,32.2-35.5,31
		l-184-0.3L68.3,18.2z"/>
	<path id="XMLID_47_" class="st19" d="M68.1,17.9c1.3-18.3,17.2-32.2,35.5-31l184,0.3l-3.1,45.5c-1.3,18.3-17.2,32.2-35.5,31
		L65,63.4L68.1,17.9z"/>
	<path id="XMLID_46_" class="st20" d="M67.9,17.7c1.3-18.3,17.2-32.2,35.5-31l184,0.3l-3.1,45.5c-1.3,18.3-17.2,32.2-35.5,31
		l-184-0.3L67.9,17.7z"/>
	<path id="XMLID_45_" class="st21" d="M67.7,17.4c1.2-18.3,17.2-32.2,35.5-31l184,0.3l-3.1,45.5c-1.2,18.3-17.2,32.2-35.5,31
		l-184-0.3L67.7,17.4z"/>
	<path id="XMLID_44_" class="st22" d="M67.5,17.2C68.8-1.1,84.7-15,103-13.8l184,0.3L283.9,32c-1.2,18.3-17.2,32.2-35.5,31l-184-0.3
		L67.5,17.2z"/>
	<path id="XMLID_43_" class="st23" d="M67.3,17c1.2-18.3,17.2-32.2,35.5-31l184,0.3l-3.1,45.5c-1.2,18.3-17.2,32.2-35.5,31l-184-0.3
		L67.3,17z"/>
	<path id="XMLID_42_" class="st24" d="M67.1,16.7c1.2-18.3,17.2-32.2,35.5-31l184,0.3l-3.1,45.5c-1.2,18.3-17.2,32.2-35.5,31
		L64,62.2L67.1,16.7z"/>
	<path id="XMLID_41_" class="st25" d="M66.9,16.5c1.2-18.3,17.2-32.2,35.5-31l184,0.3l-3.1,45.5c-1.2,18.3-17.2,32.2-35.5,31
		L63.8,62L66.9,16.5z"/>
	<path id="XMLID_40_" class="st26" d="M66.7,16.3C68-2.1,83.9-16,102.2-14.7l184,0.3L283.1,31c-1.2,18.3-17.2,32.2-35.5,31l-184-0.3
		L66.7,16.3z"/>
	<path id="XMLID_39_" class="st27" d="M66.5,16C67.7-2.3,83.7-16.2,102-15l184,0.3l-3.1,45.5c-1.2,18.3-17.2,32.2-35.5,31l-184-0.3
		L66.5,16z"/>
	<path id="XMLID_38_" class="st28" d="M66.3,15.8c1.2-18.3,17.2-32.2,35.5-31l184,0.3l-3.1,45.5c-1.2,18.3-17.2,32.2-35.5,31
		l-184-0.3L66.3,15.8z"/>
	<path id="XMLID_37_" class="st29" d="M66.1,15.5c1.2-18.3,17.2-32.2,35.5-31l184,0.3l-3.1,45.5c-1.2,18.3-17.2,32.2-35.5,31L63,61
		L66.1,15.5z"/>
	<path id="XMLID_36_" class="st30" d="M65.9,15.3C67.1-3,83-16.9,101.4-15.7l184,0.3l-3.1,45.5c-1.2,18.3-17.2,32.2-35.5,31
		l-184-0.3L65.9,15.3z"/>
	<path id="XMLID_35_" class="st31" d="M65.7,15.1c1.2-18.3,17.2-32.2,35.5-31l184,0.3L282,29.8c-1.2,18.3-17.2,32.2-35.5,31
		l-184-0.3L65.7,15.1z"/>
	<path id="XMLID_33_" class="st32" d="M65.5,14.8c1.2-18.3,17.2-32.2,35.5-31l184,0.3l-3.1,45.5c-1.2,18.3-17.2,32.2-35.5,31
		l-184-0.3L65.5,14.8z"/>
</g>
<linearGradient id="XMLID_72_" gradientUnits="userSpaceOnUse" x1="63.369" y1="24.1153" x2="280.4045" y2="24.1153" gradientTransform="matrix(0.9977 6.804908e-002 6.804908e-002 -0.9977 0.5175 34.5631)">
	<stop  offset="0" style="stop-color:#FFFFFF"/>
	<stop  offset="1" style="stop-color:#D1D2D4"/>
</linearGradient>
<path id="XMLID_70_" class="st33" d="M284.6-16c0.2,0,0.4,0.2,0.4,0.4l-3.1,45.1c-1.3,18.4-17.2,32.3-35.6,31L62.7,60.4
	c-0.2,0-0.4-0.2-0.4-0.4l3.1-45.1c1.3-18.4,17.2-32.3,35.6-31L284.6-16z"/>
<linearGradient id="XMLID_73_" gradientUnits="userSpaceOnUse" x1="64.191" y1="24.065" x2="279.5894" y2="24.065" gradientTransform="matrix(0.9977 6.804908e-002 6.804908e-002 -0.9977 0.5175 34.5631)">
	<stop  offset="0" style="stop-color:#D1D2D4"/>
	<stop  offset="1" style="stop-color:#FFFFFF"/>
</linearGradient>
<path id="XMLID_69_" class="st34" d="M63.2,59.2l3-44.3c1.2-18,16.8-31.5,34.7-30.3l182.8,0.3c0.2,0,0.4,0.2,0.4,0.4l-3,44.3
	c-1.2,17.9-16.8,31.5-34.7,30.3L63.6,59.6C63.3,59.6,63.2,59.4,63.2,59.2z"/>
<g id="XMLID_78_">
	<path id="XMLID_2_" class="st1" d="M80.1,21.1C81,8.3,92.1-1.3,104.8-0.5h0.3l173.6,0.2l-2.4,34.8c-0.9,12.8-12,22.4-24.7,21.6
		h-0.3L77.7,55.9L80.1,21.1z"/>
	<path id="XMLID_32_" class="st2" d="M79.9,20.9c0.9-12.8,12-22.4,24.7-21.6h0.3l173.6,0.2l-2.4,34.8c-0.9,12.8-12,22.4-24.7,21.6
		h-0.3L77.5,55.7L79.9,20.9z"/>
	<path id="XMLID_31_" class="st3" d="M79.8,20.8C80.7,8,91.8-1.6,104.5-0.8h0.3l173.6,0.2L276,34.1c-0.9,12.8-12,22.4-24.7,21.6H251
		L77.4,55.5L79.8,20.8z"/>
	<path id="XMLID_30_" class="st4" d="M79.6,20.6C80.5,7.8,91.6-1.8,104.3-1h0.3l173.6,0.2L275.8,34c-0.9,12.8-12,22.4-24.7,21.6
		h-0.3L77.3,55.4L79.6,20.6z"/>
	<path id="XMLID_29_" class="st5" d="M79.5,20.4C80.4,7.6,91.5-2,104.2-1.2h0.3L278-1l-2.4,34.8c-0.9,12.8-12,22.4-24.7,21.6h-0.3
		L77.1,55.2L79.5,20.4z"/>
	<path id="XMLID_28_" class="st6" d="M79.3,20.2C80.2,7.4,91.3-2.2,104-1.4h0.3l173.6,0.2l-2.4,34.8c-0.9,12.8-12,22.4-24.7,21.6
		h-0.3L77,55L79.3,20.2z"/>
	<path id="XMLID_27_" class="st7" d="M79.2,20c0.9-12.8,12-22.4,24.7-21.6h0.3l173.5,0.2l-2.4,34.8c-0.9,12.8-12,22.4-24.7,21.6
		h-0.3L76.8,54.8L79.2,20z"/>
	<path id="XMLID_26_" class="st8" d="M79.1,19.9C80,7.1,91.1-2.5,103.8-1.7h0.3l173.5,0.2l-2.4,34.8c-0.9,12.8-12,22.4-24.7,21.6
		h-0.3L76.7,54.6L79.1,19.9z"/>
	<path id="XMLID_25_" class="st9" d="M78.9,19.7c0.9-12.8,12-22.4,24.7-21.6h0.3l173.5,0.2L275,33.1c-0.9,12.8-12,22.4-24.7,21.6
		H250L76.5,54.4L78.9,19.7z"/>
	<path id="XMLID_24_" class="st10" d="M78.8,19.5c0.9-12.8,12-22.4,24.7-21.6h0.3l173.5,0.2l-2.4,34.8c-0.9,12.8-12,22.4-24.7,21.6
		h-0.3L76.4,54.3L78.8,19.5z"/>
	<path id="XMLID_23_" class="st11" d="M78.6,19.3c0.9-12.8,12-22.4,24.7-21.5h0.3L277.1-2l-2.4,34.8c-0.9,12.8-12,22.4-24.7,21.5
		h-0.3L76.3,54.1L78.6,19.3z"/>
	<path id="XMLID_22_" class="st12" d="M78.5,19.1c0.9-12.8,12-22.4,24.7-21.5h0.3L277-2.2l-2.4,34.8c-0.9,12.8-12,22.4-24.7,21.5
		h-0.3L76.1,53.9L78.5,19.1z"/>
	<path id="XMLID_21_" class="st13" d="M78.3,19C79.2,6.2,90.3-3.5,103-2.6h0.3l173.5,0.2l-2.4,34.8c-0.9,12.7-11.9,22.4-24.7,21.5
		h-0.3L76,53.7L78.3,19z"/>
	<path id="XMLID_20_" class="st14" d="M78.2,18.8C79.1,6,90.1-3.6,102.9-2.8h0.3l173.5,0.2l-2.4,34.7c-0.9,12.7-11.9,22.4-24.7,21.5
		h-0.3L75.8,53.5L78.2,18.8z"/>
	<path id="XMLID_19_" class="st15" d="M78.1,18.6C78.9,5.8,90-3.8,102.8-2.9h0.3l173.5,0.2L274.2,32c-0.9,12.7-11.9,22.4-24.7,21.5
		h-0.3L75.7,53.3L78.1,18.6z"/>
	<path id="XMLID_18_" class="st16" d="M77.9,18.4C78.8,5.7,89.9-4,102.6-3.1h0.3L276.4-3L274,31.8c-0.9,12.7-11.9,22.4-24.7,21.5
		H249L75.5,53.2L77.9,18.4z"/>
	<path id="XMLID_17_" class="st17" d="M77.8,18.2C78.7,5.5,89.7-4.2,102.5-3.3h0.3l173.5,0.2l-2.4,34.7c-0.9,12.8-12,22.4-24.7,21.5
		h-0.3L75.4,53L77.8,18.2z"/>
	<path id="XMLID_16_" class="st18" d="M77.6,18C78.5,5.3,89.5-4.4,102.3-3.5h0.3l173.5,0.2l-2.4,34.7C272.9,44.2,261.8,53.8,249,53
		h-0.3L75.3,52.8L77.6,18z"/>
	<path id="XMLID_15_" class="st19" d="M77.5,17.9C78.4,5.2,89.4-4.5,102.2-3.6h0.3L276-3.5l-2.4,34.7c-0.9,12.7-11.9,22.4-24.7,21.5
		h-0.3L75.1,52.6L77.5,17.9z"/>
	<path id="XMLID_14_" class="st20" d="M77.3,17.7C78.2,4.9,89.3-4.7,102-3.8h0.3l173.5,0.2l-2.4,34.7c-0.9,12.7-11.9,22.4-24.7,21.5
		h-0.3L75,52.4L77.3,17.7z"/>
	<path id="XMLID_13_" class="st21" d="M77.2,17.5C78.1,4.8,89.1-4.9,101.9-4h0.3l173.5,0.2l-2.4,34.7c-0.9,12.7-11.9,22.4-24.7,21.5
		h-0.3L74.8,52.2L77.2,17.5z"/>
	<path id="XMLID_12_" class="st35" d="M77.1,17.3C77.9,4.6,89-5.1,101.7-4.2h0.3L275.5-4l-2.4,34.7c-0.9,12.7-11.9,22.4-24.7,21.5
		h-0.3L74.7,52.1L77.1,17.3z"/>
	<path id="XMLID_11_" class="st23" d="M76.9,17.1C77.8,4.4,88.8-5.3,101.6-4.4h0.3l173.5,0.2L273,30.5
		c-0.9,12.7-11.9,22.4-24.7,21.5H248L74.5,51.9L76.9,17.1z"/>
	<path id="XMLID_10_" class="st24" d="M76.8,17C77.7,4.3,88.7-5.4,101.5-4.5h0.3l173.5,0.2l-2.4,34.7C272,43.1,261,52.8,248.2,51.9
		h-0.3L74.4,51.7L76.8,17z"/>
	<path id="XMLID_9_" class="st25" d="M76.6,16.8C77.5,4.1,88.5-5.6,101.3-4.7h0.3l173.5,0.2l-2.4,34.7
		c-0.9,12.7-11.9,22.4-24.7,21.5h-0.3L74.3,51.5L76.6,16.8z"/>
	<path id="XMLID_8_" class="st26" d="M76.5,16.6C77.4,3.9,88.4-5.8,101.2-4.9h0.3L275-4.7L272.5,30c-0.9,12.7-11.9,22.4-24.7,21.5
		h-0.3L74.1,51.3L76.5,16.6z"/>
	<path id="XMLID_7_" class="st27" d="M76.3,16.4C77.2,3.7,88.3-6,101-5.1h0.3l173.5,0.2l-2.4,34.7c-0.9,12.7-11.9,22.4-24.7,21.5
		h-0.3L74,51.1L76.3,16.4z"/>
	<path id="XMLID_6_" class="st28" d="M76.2,16.2C77.1,3.5,88.1-6.2,100.9-5.3h0.3l173.5,0.2l-2.4,34.7
		c-0.9,12.7-11.9,22.4-24.7,21.5h-0.3L73.8,51L76.2,16.2z"/>
	<path id="XMLID_5_" class="st29" d="M76.1,16.1C76.9,3.3,88-6.3,100.7-5.4h0.3l173.5,0.2l-2.4,34.7c-0.9,12.7-11.9,22.4-24.7,21.5
		h-0.3L73.7,50.8L76.1,16.1z"/>
	<path id="XMLID_4_" class="st30" d="M75.9,15.9C76.8,3.2,87.8-6.5,100.6-5.6h0.3l173.5,0.2L272,29.3c-0.9,12.7-12,22.3-24.7,21.5
		H247L73.5,50.6L75.9,15.9z"/>
	<path id="XMLID_3_" class="st31" d="M75.8,15.7C76.6,3,87.7-6.7,100.4-5.8h0.3l173.5,0.2l-2.4,34.7c-0.9,12.7-11.9,22.4-24.6,21.5
		h-0.3L73.4,50.4L75.8,15.7z"/>
	<path id="XMLID_1_" class="st32" d="M75.6,15.5C76.5,2.8,87.6-6.8,100.3-6h0.3L274-5.8l-2.4,34.7c-0.9,12.7-11.9,22.4-24.6,21.5
		h-0.3L73.3,50.2L75.6,15.5z"/>
</g>
<linearGradient id="XMLID_74_" gradientUnits="userSpaceOnUse" x1="73.5101" y1="24.0654" x2="270.2702" y2="24.0654" gradientTransform="matrix(0.9977 6.804908e-002 6.804908e-002 -0.9977 0.5175 34.5631)">
	<stop  offset="0" style="stop-color:#25A1D8"/>
	<stop  offset="1" style="stop-color:#1E8AC5"/>
</linearGradient>
<path id="XMLID_66_" class="st36" d="M100.5-6l173.2,0.2c0.2,0,0.4,0.2,0.4,0.4L271.8,29c-0.9,12.8-12,22.4-24.7,21.6h-0.3
	L73.6,50.3c-0.2,0-0.4-0.2-0.4-0.4l2.3-34.4c0.9-12.8,12-22.4,24.7-21.6L100.5-6z"/>
<linearGradient id="XMLID_75_" gradientUnits="userSpaceOnUse" x1="74.3998" y1="24.1153" x2="269.3738" y2="24.1153" gradientTransform="matrix(0.9977 6.804908e-002 6.804908e-002 -0.9977 0.5175 34.5631)">
	<stop  offset="0" style="stop-color:#1E8AC5"/>
	<stop  offset="1" style="stop-color:#25A1D8"/>
</linearGradient>
<path id="XMLID_65_" class="st37" d="M100.5-5.2l172.3,0.1c0.2,0,0.4,0.2,0.4,0.4l-2.3,33.5c-0.8,12.3-11.5,21.7-23.9,20.8h-0.3
	L74.5,49.5c-0.2,0-0.4-0.2-0.4-0.4l2.3-33.5C77.2,3.3,87.9-6.1,100.3-5.2H100.5z"/>
<g id="XMLID_77_">
	<g id="XMLID_79_">
		<path id="XMLID_80_" class="st38" d="M104.7,44c-10.9,0-19.8-8.9-19.8-19.8s8.9-19.8,19.8-19.8s19.8,8.9,19.8,19.8
			C124.4,35.1,115.6,44,104.7,44z"/>
	</g>
</g>
<g id="XMLID_84_">
</g>
<g id="XMLID_175_">
</g>
<g id="XMLID_176_">
</g>
<g id="XMLID_177_">
</g>
<g id="XMLID_178_">
</g>
<g id="XMLID_179_">
</g>
<g>
	
		<linearGradient id="XMLID_81_" gradientUnits="userSpaceOnUse" x1="85.4" y1="25.8356" x2="124" y2="25.8356" gradientTransform="matrix(1 0 0 -1 0 50)">
		<stop  offset="0" style="stop-color:#1E8AC5"/>
		<stop  offset="1" style="stop-color:#25A1D8"/>
	</linearGradient>
	<circle id="XMLID_76_" class="st39" cx="104.7" cy="24.2" r="19.3"/>
	<g>
		<path class="st38" d="M113.9,17.3c0.8,1.4,1.2,2.7,1.2,3.8v0.4c0,0.7-0.2,1.2-0.5,1.5c-0.3,0.3-0.8,0.4-1.6,0.4
			c-2.2,0-3.3-0.8-3.3-2.4v-0.7c0-0.5-0.1-0.9-0.2-1.1c-0.2-0.2-0.5-0.4-1-0.6c-0.9-0.3-2.2-0.5-3.9-0.5c-1.8,0-3.1,0.2-3.9,0.5
			c-0.7,0.3-1.1,0.9-1.1,1.7V21c0,1.6-1.1,2.4-3.3,2.4c-0.7,0-1.3-0.1-1.6-0.4c-0.3-0.3-0.4-0.7-0.4-1.3v-0.5c0-1.1,0.4-2.4,1.2-3.9
			c1.3-0.5,2.7-0.9,4.2-1.2c1.5-0.3,3.2-0.4,4.9-0.4c1.8,0,3.5,0.1,5,0.4C111.2,16.4,112.6,16.8,113.9,17.3z M94.8,21.1v0.4
			c0,0.5,0.1,0.8,0.4,1s0.6,0.3,1.1,0.3c0.9,0,1.6-0.2,2.1-0.5c0.4-0.3,0.7-0.7,0.7-1.3v-0.4c-0.9,0.5-1.8,0.7-2.8,0.7
			C95.7,21.3,95.2,21.3,94.8,21.1z M113.5,17.8c-1.3-0.5-2.7-0.9-4.2-1.1s-3.1-0.4-4.8-0.4c-1.7,0-3.2,0.1-4.7,0.4s-2.8,0.6-4.1,1.1
			c-0.4,0.9-0.7,1.9-0.9,2.8c0.4,0.1,0.8,0.2,1.2,0.2c0.9,0,1.9-0.3,2.9-0.8v-0.2c0-1.5,1.8-2.3,5.5-2.3c3.8,0,5.7,0.8,5.7,2.3V20
			c1.1,0.5,2.1,0.8,3,0.8c0.4,0,0.8-0.1,1.2-0.2C114.3,19.5,114,18.6,113.5,17.8z M103.1,21.3h3.3v-2.1h2.5v2.6l2.7,4.3
			c0.6,1,1,1.7,1.1,2.1s0.2,1.1,0.2,2.1v2.2H96.6v-2.2c0-0.9,0.1-1.6,0.2-2.2c0.2-0.5,0.5-1.2,1-2.1l2.7-4.3v-2.6h2.5V21.3z
			 M102.5,21.9v-2.1h-1.4v2.2l-2.6,4.1c-0.6,1-1,1.7-1.2,2.2c-0.1,0.4-0.2,1.1-0.2,2.1v1.7h15.1v-1.7c0-1.1,0-1.7-0.2-2.1
			c-0.1-0.3-0.5-1-1.2-2.2l-2.6-4.2v-2.1h-1.4v2.1H102.5z M101.7,23.1h1.4v1h-1.4V23.1z M101.7,24.8h1.4v1h-1.4V24.8z M101.7,26.4
			h1.4v1h-1.4V26.4z M104,23.1h1.4v1H104V23.1z M104,24.8h1.4v1H104V24.8z M104,26.4h1.4v1H104V26.4z M106.3,23.1h1.4v1h-1.4V23.1z
			 M106.3,24.8h1.4v1h-1.4V24.8z M106.3,26.4h1.4v1h-1.4V26.4z M114.6,21.1c-0.3,0.1-0.7,0.2-1.2,0.2c-1.1,0-2.1-0.2-3-0.7v0.7
			c0,0.4,0.3,0.8,0.8,1.1s1.2,0.4,2,0.4c0.6,0,1-0.1,1.2-0.3c0.2-0.2,0.3-0.5,0.3-1V21.1z"/>
	</g>
</g>
<text transform="matrix(1 0 0 1 135.6665 30.0381)" class="st38 st40 st41">31 2514-0564</text>
</svg>
